<svg xmlns="http://www.w3.org/2000/svg" width="64" height="64" fill="none"><path stroke="#0E5696" stroke-miterlimit="10" stroke-width="1.5" d="M53 7.367v21.824c0 16.021-12.728 22.376-21.148 26.702C23.45 51.62 10.74 45.3 10.74 29.19V7.367H53Z"/><path stroke="#0E5696" stroke-miterlimit="10" stroke-width="1.5" d="M37.175 19.259h-10.61c-1.15 0-2.083.932-2.083 2.082v10.61c0 1.15.933 2.082 2.083 2.082h10.61c1.15 0 2.082-.932 2.082-2.082V21.34c0-1.15-.932-2.082-2.082-2.082Z"/><path stroke="#0E5696" stroke-miterlimit="10" stroke-width="1.5" d="M24.483 24.617h-3.988V13.901H10.74m13.743 15.914h-3.988v10.716H13.34m25.917-15.914h3.987V13.901H53M39.257 29.815h3.987V40.53H50.4m-18.53-6.496v21.824m0-36.6V7.368"/></svg>