<svg xmlns="http://www.w3.org/2000/svg" width="919" height="309" fill="none"><g clip-path="url(#a)"><path stroke="#D69153" d="M63.086 59.88C42.37 41.31 21.211 21.337.566.5"/><path fill="#D69153" d="m75.59 82.126-.93-.949 7.32-7.164-2.596-2.652-1.51 1.139c-2.004 1.518-3.506 2.593-4.503 3.227-.99.634-1.786.968-2.387 1.002-.6.034-1.126-.187-1.578-.663a2.641 2.641 0 0 1-.587-.88l.798-.78c.1.295.258.553.472.772a.94.94 0 0 0 .743.279c.31-.011.718-.156 1.226-.434.515-.278 1.414-.878 2.699-1.8 1.291-.922 2.858-2.08 4.7-3.474l4.295 4.388-8.163 7.99Zm10.857 10.747-4.551-4.453 7.987-8.164 4.552 4.453-.825.843-3.602-3.524-2.573 2.63 3.384 3.311-.82.838-3.384-3.311-2.94 3.004 3.602 3.524-.83.85Zm17.997 1.346-.819.87-3.67-3.452-7.007 7.448-.968-.91 7.827-8.319 4.637 4.363Zm3.909 19.024-1.194-1.079-.039-7.836-3.88 4.296-.986-.89 7.656-8.476.986.89-3.708 4.105 7.529-.654 1.13 1.021-7.469.728-.025 7.895Zm16.359 6.65c-1.194 1.385-2.484 2.171-3.869 2.358-1.382.191-2.696-.251-3.943-1.326-1.274-1.098-1.923-2.335-1.947-3.711-.017-1.376.587-2.774 1.811-4.195 1.214-1.408 2.502-2.199 3.863-2.374 1.364-.178 2.685.284 3.963 1.386 1.243 1.071 1.873 2.302 1.891 3.693.018 1.391-.572 2.781-1.769 4.169Zm-6.893-5.943c-1.01 1.171-1.529 2.275-1.555 3.311-.02 1.035.446 1.963 1.396 2.783.959.826 1.943 1.148 2.952.967 1.01-.182 2.021-.861 3.035-2.036 1.003-1.164 1.519-2.256 1.547-3.278.035-1.021-.425-1.944-1.379-2.767-.959-.826-1.951-1.152-2.975-.976-1.018.175-2.025.84-3.021 1.996Zm23.211 19.194-.064-7.137 1.162.923.037 7.097 3.442-4.33 1.003.797-3.442 4.33 6.928-1.558 1.162.923-6.965 1.529-.033 7.499-1.199-.953.044-7.361-3.603 4.532-1.003-.798 3.603-4.531-7.156 1.707-1.217-.968 7.301-1.701Zm15.778 5.318.992.748-3.823 5.072a41.493 41.493 0 0 1-2.001 2.474l.05.037 10.852-3.755 1.161.874-6.875 9.122-.998-.753 3.785-5.022a42.869 42.869 0 0 1 2.091-2.553l-.057-.042-10.891 3.794-1.161-.874 6.875-9.122Zm10.438 21.929-1.078-.776 5.98-8.315-2.937-2.112.689-.957 6.952 4.999-.689.958-2.937-2.112-5.98 8.315Zm16.964 7.805c-.599.871-1.356 1.346-2.27 1.425-.907.078-1.899-.253-2.976-.994l-3.135-2.156 6.473-9.411 1.094.752-2.763 4.017 1.873 1.288c1.146.789 1.863 1.617 2.151 2.485.295.866.146 1.731-.447 2.594Zm-6.636-1.919 1.925 1.324c1.562 1.074 2.754 1.013 3.578-.185.398-.579.489-1.142.271-1.69-.21-.549-.757-1.128-1.641-1.736l-1.738-1.195-2.395 3.482Zm26.037 5.047 2.723 1.73c1.279.813 2.083 1.593 2.411 2.338.328.746.23 1.532-.295 2.358-.363.572-.824.942-1.382 1.112-.552.168-1.168.113-1.848-.166l-.042.066c1.304 1.181 1.547 2.416.729 3.704-.548.861-1.268 1.348-2.16 1.46-.887.115-1.854-.16-2.9-.825l-3.363-2.137 6.127-9.64Zm-1.503 4.84 1.846 1.173c.792.503 1.439.742 1.943.716.506-.03.947-.339 1.321-.928.344-.541.398-1.053.162-1.536-.234-.488-.772-1-1.616-1.536l-1.648-1.048-2.008 3.159Zm-.603.949-2.292 3.607 2.011 1.278c.778.494 1.457.717 2.039.666.588-.052 1.086-.398 1.494-1.04.38-.598.457-1.166.231-1.704-.221-.536-.742-1.065-1.564-1.587l-1.919-1.22Zm25.236 21.703-1.388-.815-1.627-7.665-2.929 4.993-1.145-.672 5.779-9.852 1.145.672-2.798 4.771 7.239-2.166 1.314.771-7.166 2.227 1.576 7.736Zm11.484-6.599 2.818 1.572c1.324.738 2.171 1.47 2.541 2.196.371.725.318 1.516-.159 2.371-.33.591-.769.988-1.317 1.189-.54.199-1.158.18-1.854-.059l-.038.068c1.37 1.104 1.683 2.323.94 3.655-.497.892-1.188 1.419-2.072 1.582-.88.165-1.861-.054-2.943-.658l-3.48-1.941 5.564-9.975Zm-1.222 4.918 1.91 1.066c.819.457 1.479.658 1.98.604.504-.059.926-.393 1.266-1.003.312-.559.337-1.074.073-1.542-.26-.474-.827-.954-1.701-1.441l-1.705-.952-1.823 3.268Zm-.548.983-2.082 3.732 2.081 1.161c.805.449 1.496.632 2.074.548.584-.085 1.061-.46 1.432-1.124.345-.619.389-1.19.133-1.715-.251-.522-.802-1.02-1.653-1.495l-1.985-1.107Zm16.602 15.162.442-3.876-4.048-2.14-2.941 2.554-1.188-.628 9.354-8.028.987.523-1.39 12.238-1.216-.643Zm.634-5.126.481-3.749c.057-.477.158-1.045.301-1.706-.335.388-.737.798-1.206 1.227l-2.842 2.501 3.266 1.727Zm17.339 5.194c-.518 1.033-1.271 1.652-2.259 1.856-.981.201-2.128-.027-3.441-.685l-1.201-.603-2.014 4.016-1.187-.595 5.12-10.21 2.647 1.327c2.551 1.279 3.329 2.91 2.335 4.894Zm-6.39-.451 1.069.536c1.052.527 1.898.739 2.539.635.641-.104 1.149-.531 1.525-1.281.338-.675.369-1.289.093-1.841-.277-.552-.883-1.063-1.819-1.532l-1.327-.666-2.08 4.149Zm12.938 12.61-1.199-.571 4.405-9.247-3.266-1.555.507-1.065 7.731 3.682-.508 1.065-3.265-1.555-4.405 9.246Zm14.223-5.951 1.133.509-2.602 5.794a41.705 41.705 0 0 1-1.403 2.856l.057.025 9.749-6.069 1.326.595-4.68 10.419-1.14-.512 2.577-5.737c.428-.955.919-1.939 1.471-2.953l-.064-.029-9.778 6.117-1.326-.596 4.68-10.419Zm21.623 13.057c-.449 1.066-1.16 1.732-2.132 2.001-.966.265-2.125.113-3.478-.458l-1.239-.522-1.745 4.139-1.224-.516 4.438-10.524 2.728 1.15c2.63 1.109 3.514 2.686 2.652 4.73Zm-6.405-.03 1.101.464c1.085.458 1.943.613 2.575.467.633-.145 1.112-.605 1.438-1.377.293-.696.284-1.311-.028-1.844-.313-.533-.951-1.003-1.916-1.409l-1.367-.577-1.803 4.276Zm16.388 12.788-5.916-2.355 4.224-10.612 5.915 2.355-.436 1.096-4.682-1.864-1.36 3.419 4.398 1.751-.433 1.089-4.399-1.751-1.554 3.905 4.682 1.864-.439 1.103Zm24.652-1.88c-1.181-.423-2.257-.363-3.226.181-.962.54-1.689 1.495-2.178 2.863-.504 1.407-.566 2.613-.184 3.618.388 1.002 1.192 1.722 2.413 2.159.751.269 1.655.44 2.712.515l-.392 1.096c-.846.012-1.815-.177-2.908-.569-1.584-.567-2.636-1.485-3.155-2.756-.514-1.268-.454-2.787.18-4.557.397-1.109.951-2.006 1.661-2.692a4.77 4.77 0 0 1 2.485-1.284c.946-.17 1.948-.066 3.007.313 1.128.404 2.04.963 2.736 1.677l-.914.884c-.677-.674-1.423-1.156-2.237-1.448Zm24.658 19.19-1.266-.401 3.093-9.764-5.593-1.772-3.093 9.764-1.267-.401 3.45-10.889 8.125 2.574-3.449 10.889Zm19.263-.256c-.509 1.756-1.355 3.007-2.537 3.755-1.177.748-2.556.893-4.137.435-1.615-.469-2.72-1.324-3.315-2.564-.588-1.245-.621-2.767-.098-4.568.517-1.786 1.359-3.041 2.524-3.766 1.166-.73 2.559-.86 4.18-.39 1.576.457 2.661 1.314 3.256 2.571.595 1.257.638 2.766.127 4.527Zm-8.741-2.535c-.431 1.485-.443 2.705-.036 3.658.413.949 1.222 1.599 2.428 1.949 1.215.352 2.244.236 3.086-.35.843-.585 1.48-1.623 1.912-3.114.428-1.475.443-2.683.043-3.623-.393-.944-1.195-1.592-2.406-1.943-1.215-.352-2.252-.236-3.111.35-.852.583-1.491 1.607-1.916 3.073Zm18.375 11.092-1.284-.342 2.633-9.898-3.496-.929.304-1.141 8.274 2.201-.303 1.14-3.496-.929-2.632 9.898Zm19.139-3.515c-.274 1.123-.87 1.894-1.788 2.313-.911.416-2.08.449-3.506.1l-1.306-.319-1.066 4.364-1.29-.315 2.711-11.096 2.876.703c2.773.678 3.896 2.094 3.369 4.25Zm-6.329.986 1.161.284c1.144.279 2.016.297 2.617.052.601-.244 1.002-.774 1.201-1.588.179-.734.072-1.339-.321-1.816-.393-.476-1.097-.839-2.114-1.087l-1.442-.353-1.102 4.508Zm16.338 4.725-3.952 4.006-1.533-.34 4.207-4.181c-.762-.441-1.27-.964-1.525-1.57-.254-.611-.292-1.318-.114-2.122.221-.997.734-1.686 1.538-2.068.811-.385 1.916-.423 3.314-.114l3.067.68-2.471 11.151-1.296-.287 1.03-4.653-2.265-.502Zm3.457-4.875-1.732-.384c-.93-.206-1.673-.203-2.227.011-.554.213-.911.681-1.071 1.403-.328 1.48.472 2.433 2.399 2.86l1.686.373.945-4.263Zm14.697 2.924c-1.231-.244-2.286-.025-3.165.656-.872.676-1.449 1.727-1.731 3.153-.291 1.466-.173 2.668.352 3.606.532.934 1.434 1.526 2.706 1.779.782.154 1.701.191 2.758.108l-.226 1.142c-.834.137-1.821.093-2.96-.133-1.651-.327-2.826-1.08-3.527-2.26-.696-1.178-.861-2.69-.495-4.534.229-1.155.644-2.124 1.245-2.907a4.762 4.762 0 0 1 2.268-1.637c.91-.308 1.917-.353 3.021-.134 1.175.232 2.159.651 2.953 1.254l-.773 1.009c-.77-.566-1.578-.934-2.426-1.102Zm16.001 13.515-.775-3.824-4.509-.789-2.012 3.336-1.323-.232 6.425-10.518 1.1.192 2.448 12.072-1.354-.237Zm-.976-5.073-.698-3.715a18.821 18.821 0 0 1-.24-1.715c-.199.473-.455.986-.769 1.539l-1.933 3.254 3.64.637Zm24.636 2.948c-.269 1.824-.921 3.186-1.954 4.087-1.028.896-2.324 1.228-3.891.996-1.551-.229-2.697-.88-3.439-1.953-.735-1.077-1.002-2.499-.799-4.264l-2.736-.404-.786 5.317-1.313-.194 1.669-11.299 1.314.194-.71 4.807 2.751.406c.355-1.585 1.029-2.743 2.022-3.476.998-.732 2.236-.988 3.715-.77 1.582.234 2.737.934 3.465 2.1.729 1.16.959 2.645.692 4.453Zm-8.656-1.279c-.225 1.525-.09 2.73.406 3.614.496.884 1.339 1.414 2.529 1.59 1.206.178 2.171-.082 2.895-.781.73-.697 1.208-1.814 1.435-3.349.227-1.536.094-2.737-.399-3.605-.488-.867-1.33-1.389-2.525-1.566-1.201-.177-2.168.083-2.903.78-.734.691-1.213 1.797-1.438 3.317Zm15.569 7.962 1.321-11.345 1.319.154-1.182 10.15 4.524.527 1.182-10.151 1.335.156-1.182 10.15 4.532.528 1.182-10.15 1.319.153-1.182 10.15 1.335.156-.484 4.152-1.257-.147.345-2.956-13.107-1.527Zm22.931-8.968 1.237.109-.558 6.327a41.741 41.741 0 0 1-.388 3.158l.062.006 7.219-8.932 1.447.128-1.003 11.377-1.245-.109.552-6.265c.092-1.043.233-2.134.422-3.273l-.07-.006-7.231 8.985-1.448-.127 1.004-11.378Zm22.007 13.177-3.247-10.344-.062-.004c.024.805.002 1.759-.066 2.861l-.446 7.252-1.224-.075.701-11.401 1.996.123 3.032 9.626.062.004 4.22-9.18 1.981.121-.701 11.401-1.326-.082.452-7.345c.052-.842.144-1.755.278-2.738l-.063-.004-4.519 9.85-1.068-.065Zm15.38-10.617 1.241.044-.221 6.347a41.758 41.758 0 0 1-.22 3.174l.062.003 6.735-9.303 1.452.051-.398 11.415-1.249-.044.219-6.285c.036-1.046.119-2.143.248-3.29l-.071-.003-6.744 9.357-1.452-.051.398-11.415Zm27.606.608 3.226-.009c1.516-.005 2.613.219 3.291.67.678.451 1.019 1.166 1.022 2.145.002.678-.187 1.238-.565 1.682-.374.438-.923.724-1.646.856v.078c1.735.292 2.605 1.201 2.609 2.727.003 1.021-.341 1.819-1.032 2.394-.686.575-1.648.864-2.888.868l-3.984.011-.033-11.422Zm1.342 4.887 2.187-.006c.938-.003 1.612-.151 2.022-.444.411-.298.615-.796.613-1.494-.002-.64-.232-1.101-.691-1.381-.459-.285-1.189-.426-2.189-.423l-1.953.006.011 3.742Zm.003 1.125.013 4.273 2.382-.006c.922-.003 1.614-.182 2.077-.538.468-.361.7-.921.698-1.682-.002-.708-.243-1.228-.723-1.56-.475-.332-1.199-.496-2.173-.494l-2.274.007Zm14.436-6.14 1.242-.033.169 6.349a41.714 41.714 0 0 1-.024 3.181l.062-.001 6.15-9.699 1.453-.039.304 11.418-1.249.033-.168-6.286a42.933 42.933 0 0 1 .045-3.3l-.07.002-6.157 9.754-1.452.039-.305-11.418Zm27.464 13.347-1.264.063-.15-2.972-7.928.4.15 2.973-1.264.063-.21-4.174.881-.044c.733-1.388 1.335-3.061 1.804-5.02.475-1.958.703-3.738.685-5.338l5.126-.259.516 10.206 1.443-.073.211 4.175Zm-2.981-4.035-.455-9.012-2.598.131c-.03 1.264-.268 2.793-.715 4.589-.447 1.79-.996 3.312-1.647 4.565l5.415-.273Zm17.006.094-1.683-3.52-4.566.333-1.138 3.725-1.34.098 3.669-11.767 1.114-.081 5.315 11.112-1.371.1Zm-2.183-4.682-1.582-3.433c-.204-.434-.42-.97-.65-1.606a14.701 14.701 0 0 1-.371 1.68l-1.082 3.628 3.685-.269Zm16.044 3.465-4.846-9.697-.063.006c.151.791.281 1.736.389 2.835l.711 7.23-1.221.12-1.117-11.367 1.99-.195 4.522 9.022.062-.006 2.709-9.733 1.975-.194 1.117 11.367-1.322.13-.719-7.324a37.767 37.767 0 0 1-.161-2.748l-.062.006-2.898 10.443-1.066.105Zm13.501-12.923 1.232-.154.79 6.302a41.85 41.85 0 0 1 .286 3.169l.062-.008 5.173-10.253 1.441-.181 1.419 11.333-1.24.156-.781-6.241a42.954 42.954 0 0 1-.278-3.287l-.07.008-5.173 10.309-1.442.18-1.419-11.333Z"/><path stroke="#D69153" d="M683.894 283.258C814.196 278.337 908.001 50.5 908-3.5"/></g><defs><clipPath id="a"><path fill="#fff" d="M0 0h919v309H0z"/></clipPath></defs></svg>