<svg xmlns="http://www.w3.org/2000/svg" width="987" height="774" fill="none"><g clip-path="url(#a)"><path stroke="#D69153" d="M540.509 538.738c99.499-49.499 432.001-420.5 342.5-537.5"/><path fill="#D69153" d="m279.683 664.005-1.476.232-.938-5.974-6.685 1.049.937 5.974-1.476.232-1.992-12.695 1.476-.231.848 5.401 6.685-1.05-.847-5.4 1.476-.232 1.992 12.694Zm18.89-10.023c.39 2.02.185 3.707-.616 5.061-.794 1.353-2.101 2.205-3.919 2.556-1.858.359-3.403.07-4.634-.868-1.227-.945-2.041-2.452-2.441-4.523-.397-2.054-.198-3.743.597-5.066.794-1.329 2.122-2.174 3.986-2.534 1.813-.35 3.339-.048 4.58.906 1.24.954 2.056 2.443 2.447 4.468Zm-10.053 1.943c.33 1.708.943 2.936 1.839 3.682.901.739 2.044.974 3.431.706 1.398-.27 2.368-.914 2.912-1.932.543-1.018.649-2.384.318-4.098-.328-1.698-.933-2.914-1.815-3.651-.878-.744-2.013-.981-3.405-.712-1.398.27-2.377.919-2.936 1.946-.555 1.02-.67 2.373-.344 4.059Zm17.121-9.997 3.539-.808c1.662-.379 2.921-.404 3.777-.077.856.328 1.407 1.029 1.652 2.103.169.742.101 1.404-.206 1.985-.301.573-.833 1.022-1.595 1.346l.02.086c1.976-.109 3.156.674 3.537 2.348.256 1.12.075 2.08-.541 2.882-.611.8-1.596 1.356-2.956 1.666l-4.37.996-2.857-12.527Zm2.68 5.032 2.399-.548c1.028-.234 1.732-.563 2.11-.986.377-.428.478-1.025.304-1.791-.16-.702-.527-1.151-1.1-1.344-.575-.2-1.41-.175-2.507.075l-2.142.489.936 4.105Zm.281 1.233 1.069 4.688 2.614-.596c1.011-.231 1.726-.598 2.146-1.103.425-.511.542-1.184.351-2.018-.177-.777-.57-1.288-1.179-1.534-.603-.247-1.439-.249-2.507-.005l-2.494.568Zm24.301.307-2.579-3.552-4.984 1.299-.5 4.354-1.463.381 1.662-13.766 1.217-.317 8.144 11.211-1.497.39Zm-3.369-4.735-2.449-3.476a21.075 21.075 0 0 1-1.046-1.644c.017.577-.006 1.221-.069 1.934l-.459 4.234 4.023-1.048Zm14.164-3.873-1.719 6.093-1.695.498 1.875-6.404c-.989-.021-1.774-.261-2.354-.719-.582-.465-1.004-1.141-1.265-2.029-.323-1.102-.192-2.06.393-2.873.59-.82 1.658-1.457 3.204-1.911l3.39-.996 3.62 12.329-1.433.421-1.511-5.144-2.505.735Zm.759-6.68-1.914.562c-1.029.302-1.758.709-2.188 1.22-.43.511-.528 1.165-.294 1.964.481 1.636 1.786 2.141 3.917 1.515l1.864-.547-1.385-4.714Zm31.42 1.887-1.411.491-1.746-5.013c-.723.581-1.338 1.022-1.848 1.323a9.598 9.598 0 0 1-1.646.751c-1.145.399-2.12.443-2.922.134-.798-.312-1.369-.963-1.714-1.954l-1.68-4.822 1.411-.491 1.622 4.656c.233.669.58 1.104 1.041 1.303.466.198 1.094.159 1.885-.117a10.347 10.347 0 0 0 1.495-.651c.464-.254 1.11-.697 1.939-1.327l-2.064-5.926 1.411-.491 4.227 12.134Zm16.052-6.015-2.959-3.241-4.808 1.847-.011 4.383-1.411.542.115-13.866 1.173-.451 9.345 10.232-1.444.554Zm-3.876-4.329-2.823-3.181a21.163 21.163 0 0 1-1.223-1.517c.081.572.131 1.215.148 1.93l.017 4.259 3.881-1.491Zm12.745-11.926c-1.302.546-2.149 1.413-2.54 2.601-.388 1.179-.265 2.523.368 4.03.651 1.551 1.516 2.598 2.596 3.142 1.083.537 2.298.523 3.643-.042.826-.347 1.707-.891 2.641-1.633l.507 1.207c-.692.653-1.64 1.232-2.845 1.738-1.745.733-3.315.769-4.711.11-1.39-.662-2.494-1.968-3.313-3.919-.513-1.221-.735-2.386-.667-3.495.074-1.111.436-2.095 1.086-2.953.656-.86 1.567-1.535 2.734-2.025 1.243-.522 2.424-.751 3.544-.687l-.087 1.428c-1.074-.045-2.059.121-2.956.498Zm18.716 4.555-1.361.618-4.765-10.491-3.705 1.683-.549-1.208 8.77-3.984.549 1.208-3.705 1.683 4.766 10.491Zm16.369-11.948c.523 1.069.571 2.073.144 3.013-.425.931-1.298 1.721-2.618 2.367l-3.845 1.883-5.65-11.541 1.342-.657 2.412 4.926 2.297-1.125c1.405-.688 2.612-.933 3.622-.736 1.013.189 1.778.813 2.296 1.87Zm-5.545 5.445 2.36-1.155c1.916-.938 2.514-2.141 1.795-3.609-.347-.711-.85-1.111-1.507-1.2-.654-.097-1.523.119-2.607.65l-2.132 1.044 2.091 4.27Zm23.425-25.207.647 1.179-4.969 2.729 5.538 10.084-1.309.719-6.186-11.263 6.279-3.448Zm19.374-3.837c1.046 1.77 1.42 3.428 1.122 4.973-.294 1.541-1.238 2.783-2.832 3.725-1.629.963-3.181 1.21-4.656.741-1.473-.477-2.747-1.624-3.82-3.44-1.064-1.8-1.445-3.457-1.141-4.971.3-1.518 1.268-2.76 2.902-3.726 1.589-.939 3.128-1.168 4.617-.687 1.489.481 2.758 1.609 3.808 3.385Zm-8.815 5.21c.885 1.498 1.876 2.447 2.97 2.849 1.097.393 2.253.23 3.469-.488 1.226-.725 1.923-1.658 2.093-2.799.169-1.142-.191-2.464-1.079-3.967-.88-1.488-1.859-2.431-2.937-2.828-1.077-.405-2.225-.247-3.446.475-1.226.724-1.93 1.664-2.111 2.82-.179 1.147.168 2.46 1.041 3.938Zm21.653-16.392c.698 1.097.859 2.182.485 3.253-.373 1.063-1.256 2.038-2.651 2.924l-1.275.811 2.711 4.265-1.261.802-6.894-10.844 2.811-1.787c2.71-1.723 4.735-1.531 6.074.576Zm-4.13 5.906 1.135-.722c1.118-.71 1.811-1.405 2.081-2.083.27-.679.152-1.416-.354-2.212-.456-.717-1.03-1.102-1.723-1.154-.693-.053-1.536.237-2.53.869l-1.41.896 2.801 4.406Zm21.207-14.159c1.159 1.698 1.64 3.328 1.442 4.889-.193 1.557-1.054 2.858-2.584 3.901-1.563 1.067-3.096 1.414-4.598 1.042-1.501-.38-2.846-1.442-4.035-3.184-1.179-1.728-1.666-3.357-1.462-4.887.202-1.535 1.086-2.837 2.655-3.907 1.524-1.04 3.045-1.369 4.562-.985 1.517.383 2.857 1.427 4.02 3.131Zm-8.458 5.771c.981 1.437 2.03 2.32 3.149 2.65 1.12.321 2.263.083 3.429-.712 1.176-.803 1.812-1.779 1.907-2.929.095-1.15-.35-2.446-1.334-3.889-.974-1.428-2.013-2.305-3.115-2.631-1.1-.334-2.236-.102-3.408.698-1.176.802-1.817 1.786-1.923 2.95-.104 1.157.327 2.444 1.295 3.863Zm29.497-8.896-1.148.843-1.981-2.7-7.2 5.283 1.982 2.7-1.148.842-2.782-3.791.8-.587c-.17-1.758-.641-3.702-1.412-5.832-.766-2.134-1.653-3.947-2.661-5.439l4.656-3.416 6.801 9.268 1.311-.962 2.782 3.791Zm-5.298-1.945-6.005-8.184-2.36 1.732c.754 1.205 1.477 2.79 2.169 4.753.688 1.958 1.115 3.728 1.279 5.308l4.917-3.609Zm15.969-10.533-3.78-2.231-4.054 3.177 1.276 4.193-1.19.932-3.959-13.289.989-.775 11.936 7.038-1.218.955Zm-4.976-3.002-3.632-2.212a21.482 21.482 0 0 1-1.614-1.091c.246.522.482 1.122.708 1.801l1.266 4.066 3.272-2.564Z"/><path stroke="#D69153" d="M258.217 664.176c-55.8 13.393-183.858 87.651-298.178 179.324"/></g><defs><clipPath id="a"><path fill="#fff" d="M0 0h987v774H0z"/></clipPath></defs></svg>