<svg width="919" height="309" viewBox="0 0 919 309" fill="none" xmlns="http://www.w3.org/2000/svg">
<g clip-path="url(#clip0_385_1727)">
<path d="M63.0862 59.8809C42.3699 41.3088 21.2107 21.3356 0.566895 0.5" stroke="#D69153"/>
<path d="M75.5892 82.1265L74.6602 81.1773L81.9799 74.0132L79.3842 71.3612L77.8748 72.4996C75.8697 74.0176 74.3683 75.0934 73.3708 75.7273C72.3806 76.3612 71.5851 76.6951 70.9844 76.7292C70.3837 76.7633 69.8576 76.5421 69.406 76.0659C69.1364 75.7904 68.9407 75.4973 68.8188 75.1867L69.6172 74.4052C69.7171 74.7009 69.8746 74.9586 70.0895 75.1782C70.2826 75.3755 70.5302 75.4684 70.8324 75.4569C71.1419 75.4455 71.5504 75.3007 72.058 75.0226C72.5729 74.7445 73.4725 74.1446 74.7567 73.2229C76.0483 72.3013 77.615 71.1433 79.4568 69.7488L83.752 74.1373L75.5892 82.1265Z" fill="#D69153"/>
<path d="M86.447 92.8732L81.8958 88.4204L89.8835 80.2561L94.4347 84.7089L93.6096 85.5522L90.0079 82.0282L87.4345 84.6584L90.8186 87.9693L89.9991 88.8069L86.615 85.496L83.6756 88.5004L87.2774 92.0244L86.447 92.8732Z" fill="#D69153"/>
<path d="M104.444 94.2189L103.625 95.0899L99.955 91.6369L92.9477 99.0849L91.9803 98.1749L99.8068 89.8562L104.444 94.2189Z" fill="#D69153"/>
<path d="M108.353 113.243L107.159 112.164L107.12 104.328L103.24 108.624L102.254 107.734L109.91 99.2581L110.896 100.148L107.188 104.253L114.717 103.599L115.847 104.62L108.378 105.348L108.353 113.243Z" fill="#D69153"/>
<path d="M124.712 119.893C123.518 121.278 122.228 122.064 120.843 122.251C119.461 122.442 118.147 122 116.9 120.925C115.626 119.827 114.977 118.59 114.953 117.214C114.936 115.838 115.54 114.44 116.764 113.019C117.978 111.611 119.266 110.82 120.627 110.645C121.991 110.467 123.312 110.929 124.59 112.031C125.833 113.102 126.463 114.333 126.481 115.724C126.499 117.115 125.909 118.505 124.712 119.893ZM117.819 113.95C116.809 115.121 116.29 116.225 116.264 117.261C116.244 118.296 116.71 119.224 117.66 120.044C118.619 120.87 119.603 121.192 120.612 121.011C121.622 120.829 122.633 120.15 123.647 118.975C124.65 117.811 125.166 116.719 125.194 115.697C125.229 114.676 124.769 113.753 123.815 112.93C122.856 112.104 121.864 111.778 120.84 111.954C119.822 112.129 118.815 112.794 117.819 113.95Z" fill="#D69153"/>
<path d="M141.03 133.144L140.966 126.007L142.128 126.93L142.165 134.027L145.607 129.697L146.61 130.494L143.168 134.824L150.096 133.266L151.258 134.189L144.293 135.718L144.26 143.217L143.061 142.264L143.105 134.903L139.502 139.435L138.499 138.637L142.102 134.106L134.946 135.813L133.729 134.845L141.03 133.144Z" fill="#D69153"/>
<path d="M156.808 138.462L157.8 139.21L153.977 144.282C153.272 145.218 152.605 146.043 151.976 146.756L152.026 146.793L162.878 143.038L164.039 143.912L157.164 153.034L156.166 152.281L159.951 147.259C160.581 146.423 161.278 145.572 162.042 144.706L161.985 144.664L151.094 148.458L149.933 147.584L156.808 138.462Z" fill="#D69153"/>
<path d="M167.246 160.391L166.168 159.615L172.148 151.3L169.211 149.188L169.9 148.231L176.852 153.23L176.163 154.188L173.226 152.076L167.246 160.391Z" fill="#D69153"/>
<path d="M184.21 168.196C183.611 169.067 182.854 169.542 181.94 169.621C181.033 169.699 180.041 169.368 178.964 168.627L175.829 166.471L182.302 157.06L183.396 157.812L180.633 161.829L182.506 163.117C183.652 163.906 184.369 164.734 184.657 165.602C184.952 166.468 184.803 167.333 184.21 168.196ZM177.574 166.277L179.499 167.601C181.061 168.675 182.253 168.614 183.077 167.416C183.475 166.837 183.566 166.274 183.348 165.726C183.138 165.177 182.591 164.598 181.707 163.99L179.969 162.795L177.574 166.277Z" fill="#D69153"/>
<path d="M203.611 171.324L206.334 173.054C207.613 173.867 208.417 174.647 208.745 175.392C209.073 176.138 208.975 176.924 208.45 177.75C208.087 178.322 207.626 178.692 207.068 178.862C206.516 179.03 205.9 178.975 205.22 178.696L205.178 178.762C206.482 179.943 206.725 181.178 205.907 182.466C205.359 183.327 204.639 183.814 203.747 183.926C202.86 184.041 201.893 183.766 200.847 183.101L197.484 180.964L203.611 171.324ZM202.108 176.164L203.954 177.337C204.746 177.84 205.393 178.079 205.897 178.053C206.403 178.023 206.844 177.714 207.218 177.125C207.562 176.584 207.616 176.072 207.38 175.589C207.146 175.101 206.608 174.589 205.764 174.053L204.116 173.005L202.108 176.164ZM201.505 177.113L199.213 180.72L201.224 181.998C202.002 182.492 202.681 182.715 203.263 182.664C203.851 182.612 204.349 182.266 204.757 181.624C205.137 181.026 205.214 180.458 204.988 179.92C204.767 179.384 204.246 178.855 203.424 178.333L201.505 177.113Z" fill="#D69153"/>
<path d="M226.741 198.816L225.353 198.001L223.726 190.336L220.797 195.329L219.652 194.657L225.431 184.805L226.576 185.477L223.778 190.248L231.017 188.082L232.331 188.853L225.165 191.08L226.741 198.816Z" fill="#D69153"/>
<path d="M238.225 192.217L241.043 193.789C242.367 194.527 243.214 195.259 243.584 195.985C243.955 196.71 243.902 197.501 243.425 198.356C243.095 198.947 242.656 199.344 242.108 199.545C241.568 199.744 240.95 199.725 240.254 199.486L240.216 199.554C241.586 200.658 241.899 201.877 241.156 203.209C240.659 204.101 239.968 204.628 239.084 204.791C238.204 204.956 237.223 204.737 236.141 204.133L232.661 202.192L238.225 192.217ZM237.003 197.135L238.913 198.201C239.732 198.658 240.392 198.859 240.893 198.805C241.397 198.746 241.819 198.412 242.159 197.802C242.471 197.243 242.496 196.728 242.232 196.26C241.972 195.786 241.405 195.306 240.531 194.819L238.826 193.867L237.003 197.135ZM236.455 198.118L234.373 201.85L236.454 203.011C237.259 203.46 237.95 203.643 238.528 203.559C239.112 203.474 239.589 203.099 239.96 202.435C240.305 201.816 240.349 201.245 240.093 200.72C239.842 200.198 239.291 199.7 238.44 199.225L236.455 198.118Z" fill="#D69153"/>
<path d="M253.057 213.28L253.499 209.404L249.451 207.264L246.51 209.818L245.322 209.19L254.676 201.162L255.663 201.685L254.273 213.923L253.057 213.28ZM253.691 208.154L254.172 204.405C254.229 203.928 254.33 203.36 254.473 202.699C254.138 203.087 253.736 203.497 253.267 203.926L250.425 206.427L253.691 208.154Z" fill="#D69153"/>
<path d="M271.03 213.348C270.512 214.381 269.759 215 268.771 215.204C267.79 215.405 266.643 215.177 265.33 214.519L264.129 213.916L262.115 217.932L260.928 217.337L266.048 207.127L268.695 208.454C271.246 209.733 272.024 211.364 271.03 213.348ZM264.64 212.897L265.709 213.433C266.761 213.96 267.607 214.172 268.248 214.068C268.889 213.964 269.397 213.537 269.773 212.787C270.111 212.112 270.142 211.498 269.866 210.946C269.589 210.394 268.983 209.883 268.047 209.414L266.72 208.748L264.64 212.897Z" fill="#D69153"/>
<path d="M277.578 225.507L276.379 224.936L280.784 215.689L277.518 214.134L278.025 213.069L285.756 216.751L285.248 217.816L281.983 216.261L277.578 225.507Z" fill="#D69153"/>
<path d="M291.801 219.556L292.934 220.065L290.332 225.859C289.852 226.928 289.384 227.88 288.929 228.715L288.986 228.74L298.735 222.671L300.061 223.266L295.381 233.685L294.241 233.173L296.818 227.436C297.246 226.481 297.737 225.497 298.289 224.483L298.225 224.454L288.447 230.571L287.121 229.975L291.801 219.556Z" fill="#D69153"/>
<path d="M313.424 232.613C312.975 233.679 312.264 234.345 311.292 234.614C310.326 234.879 309.167 234.727 307.814 234.156L306.575 233.634L304.83 237.773L303.606 237.257L308.044 226.733L310.772 227.883C313.402 228.992 314.286 230.569 313.424 232.613ZM307.019 232.583L308.12 233.047C309.205 233.505 310.063 233.66 310.695 233.514C311.328 233.369 311.807 232.909 312.133 232.137C312.426 231.441 312.417 230.826 312.105 230.293C311.792 229.76 311.154 229.29 310.189 228.884L308.822 228.307L307.019 232.583Z" fill="#D69153"/>
<path d="M323.407 245.371L317.491 243.016L321.715 232.404L327.63 234.759L327.194 235.855L322.512 233.991L321.152 237.41L325.55 239.161L325.117 240.25L320.718 238.499L319.164 242.404L323.846 244.268L323.407 245.371Z" fill="#D69153"/>
<path d="M348.059 243.491C346.878 243.068 345.802 243.128 344.833 243.672C343.871 244.212 343.144 245.167 342.655 246.535C342.151 247.942 342.089 249.148 342.471 250.153C342.859 251.155 343.663 251.875 344.884 252.312C345.635 252.581 346.539 252.752 347.596 252.827L347.204 253.923C346.358 253.935 345.389 253.746 344.296 253.354C342.712 252.787 341.66 251.869 341.141 250.598C340.627 249.33 340.687 247.811 341.321 246.041C341.718 244.932 342.272 244.035 342.982 243.349C343.697 242.665 344.525 242.237 345.467 242.065C346.413 241.895 347.415 241.999 348.474 242.378C349.602 242.782 350.514 243.341 351.21 244.055L350.296 244.939C349.619 244.265 348.873 243.783 348.059 243.491Z" fill="#D69153"/>
<path d="M372.717 262.681L371.451 262.28L374.544 252.516L368.951 250.744L365.858 260.508L364.591 260.107L368.041 249.218L376.166 251.792L372.717 262.681Z" fill="#D69153"/>
<path d="M391.98 262.425C391.471 264.181 390.625 265.432 389.443 266.18C388.266 266.928 386.887 267.073 385.306 266.615C383.691 266.146 382.586 265.291 381.991 264.051C381.403 262.806 381.37 261.284 381.893 259.483C382.41 257.697 383.252 256.442 384.417 255.717C385.583 254.987 386.976 254.857 388.597 255.327C390.173 255.784 391.258 256.641 391.853 257.898C392.448 259.155 392.491 260.664 391.98 262.425ZM383.239 259.89C382.808 261.375 382.796 262.595 383.203 263.548C383.616 264.497 384.425 265.147 385.631 265.497C386.846 265.849 387.875 265.733 388.717 265.147C389.56 264.562 390.197 263.524 390.629 262.033C391.057 260.558 391.072 259.35 390.672 258.41C390.279 257.466 389.477 256.818 388.266 256.467C387.051 256.115 386.014 256.231 385.155 256.817C384.303 257.4 383.664 258.424 383.239 259.89Z" fill="#D69153"/>
<path d="M401.614 270.982L400.33 270.64L402.963 260.742L399.467 259.813L399.771 258.672L408.045 260.873L407.742 262.013L404.246 261.084L401.614 270.982Z" fill="#D69153"/>
<path d="M420.753 267.467C420.479 268.59 419.883 269.361 418.965 269.78C418.054 270.196 416.885 270.229 415.459 269.88L414.153 269.561L413.087 273.925L411.797 273.61L414.508 262.514L417.384 263.217C420.157 263.895 421.28 265.311 420.753 267.467ZM414.424 268.453L415.585 268.737C416.729 269.016 417.601 269.034 418.202 268.789C418.803 268.545 419.204 268.015 419.403 267.201C419.582 266.467 419.475 265.862 419.082 265.385C418.689 264.909 417.985 264.546 416.968 264.298L415.526 263.945L414.424 268.453Z" fill="#D69153"/>
<path d="M430.762 273.178L426.81 277.184L425.277 276.844L429.484 272.663C428.722 272.222 428.214 271.699 427.959 271.093C427.705 270.482 427.667 269.775 427.845 268.971C428.066 267.974 428.579 267.285 429.383 266.903C430.194 266.518 431.299 266.48 432.697 266.789L435.764 267.469L433.293 278.62L431.997 278.333L433.027 273.68L430.762 273.178ZM434.219 268.303L432.487 267.919C431.557 267.713 430.814 267.716 430.26 267.93C429.706 268.143 429.349 268.611 429.189 269.333C428.861 270.813 429.661 271.766 431.588 272.193L433.274 272.566L434.219 268.303Z" fill="#D69153"/>
<path d="M448.916 271.227C447.685 270.983 446.63 271.202 445.751 271.883C444.879 272.559 444.302 273.61 444.02 275.036C443.729 276.502 443.847 277.704 444.372 278.642C444.904 279.576 445.806 280.168 447.078 280.421C447.86 280.575 448.779 280.612 449.836 280.529L449.61 281.671C448.776 281.808 447.789 281.764 446.65 281.538C444.999 281.211 443.824 280.458 443.123 279.278C442.427 278.1 442.262 276.588 442.628 274.744C442.857 273.589 443.272 272.62 443.873 271.837C444.479 271.054 445.235 270.509 446.141 270.2C447.051 269.892 448.058 269.847 449.162 270.066C450.337 270.298 451.321 270.717 452.115 271.32L451.342 272.329C450.572 271.763 449.764 271.395 448.916 271.227Z" fill="#D69153"/>
<path d="M464.917 284.742L464.142 280.918L459.633 280.129L457.621 283.465L456.298 283.233L462.723 272.715L463.823 272.907L466.271 284.979L464.917 284.742ZM463.941 279.669L463.243 275.954C463.15 275.483 463.071 274.912 463.003 274.239C462.804 274.712 462.548 275.225 462.234 275.778L460.301 279.032L463.941 279.669Z" fill="#D69153"/>
<path d="M488.577 282.617C488.308 284.441 487.656 285.803 486.623 286.704C485.595 287.6 484.299 287.932 482.732 287.7C481.181 287.471 480.035 286.82 479.293 285.747C478.558 284.67 478.291 283.248 478.494 281.483L475.758 281.079L474.972 286.396L473.659 286.202L475.328 274.903L476.642 275.097L475.932 279.904L478.683 280.31C479.038 278.725 479.712 277.567 480.705 276.834C481.703 276.102 482.941 275.846 484.42 276.064C486.002 276.298 487.157 276.998 487.885 278.164C488.614 279.324 488.844 280.809 488.577 282.617ZM479.921 281.338C479.696 282.863 479.831 284.068 480.327 284.952C480.823 285.836 481.666 286.366 482.856 286.542C484.062 286.72 485.027 286.46 485.751 285.761C486.481 285.064 486.959 283.947 487.186 282.412C487.413 280.876 487.28 279.675 486.787 278.807C486.299 277.94 485.457 277.418 484.262 277.241C483.061 277.064 482.094 277.324 481.359 278.021C480.625 278.712 480.146 279.818 479.921 281.338Z" fill="#D69153"/>
<path d="M495.49 289.3L496.811 277.955L498.13 278.109L496.948 288.259L501.472 288.786L502.654 278.635L503.989 278.791L502.807 288.941L507.339 289.469L508.521 279.319L509.84 279.472L508.658 289.622L509.993 289.778L509.509 293.93L508.252 293.783L508.597 290.827L495.49 289.3Z" fill="#D69153"/>
<path d="M518.421 280.332L519.658 280.441L519.1 286.768C518.997 287.936 518.868 288.988 518.712 289.926L518.774 289.932L525.993 281L527.44 281.128L526.437 292.505L525.192 292.396L525.744 286.131C525.836 285.088 525.977 283.997 526.166 282.858L526.096 282.852L518.865 291.837L517.417 291.71L518.421 280.332Z" fill="#D69153"/>
<path d="M540.428 293.509L537.181 283.165L537.119 283.161C537.143 283.966 537.121 284.92 537.053 286.022L536.607 293.274L535.383 293.199L536.084 281.798L538.08 281.921L541.112 291.547L541.174 291.551L545.394 282.371L547.375 282.492L546.674 293.893L545.348 293.811L545.8 286.466C545.852 285.624 545.944 284.711 546.078 283.728L546.015 283.724L541.496 293.574L540.428 293.509Z" fill="#D69153"/>
<path d="M555.808 282.892L557.049 282.936L556.828 289.283C556.787 290.455 556.714 291.513 556.608 292.457L556.67 292.46L563.405 283.157L564.857 283.208L564.459 294.623L563.21 294.579L563.429 288.294C563.465 287.248 563.548 286.151 563.677 285.004L563.606 285.001L556.862 294.358L555.41 294.307L555.808 282.892Z" fill="#D69153"/>
<path d="M583.414 283.5L586.64 283.491C588.156 283.486 589.253 283.71 589.931 284.161C590.609 284.612 590.95 285.327 590.953 286.306C590.955 286.984 590.766 287.544 590.388 287.988C590.014 288.426 589.465 288.712 588.742 288.844V288.922C590.477 289.214 591.347 290.123 591.351 291.649C591.354 292.67 591.01 293.468 590.319 294.043C589.633 294.618 588.671 294.907 587.431 294.911L583.447 294.922L583.414 283.5ZM584.756 288.387L586.943 288.381C587.881 288.378 588.555 288.23 588.965 287.937C589.376 287.639 589.58 287.141 589.578 286.443C589.576 285.803 589.346 285.342 588.887 285.062C588.428 284.777 587.698 284.636 586.698 284.639L584.745 284.645L584.756 288.387ZM584.759 289.512L584.772 293.785L587.154 293.779C588.076 293.776 588.768 293.597 589.231 293.241C589.699 292.88 589.931 292.32 589.929 291.559C589.927 290.851 589.686 290.331 589.206 289.999C588.731 289.667 588.007 289.503 587.033 289.505L584.759 289.512Z" fill="#D69153"/>
<path d="M599.195 283.372L600.437 283.339L600.606 289.688C600.638 290.859 600.629 291.92 600.582 292.869L600.644 292.868L606.794 283.169L608.247 283.13L608.551 294.548L607.302 294.581L607.134 288.295C607.106 287.248 607.121 286.148 607.179 284.995L607.109 284.997L600.952 294.751L599.5 294.79L599.195 283.372Z" fill="#D69153"/>
<path d="M626.659 296.719L625.395 296.782L625.245 293.81L617.317 294.21L617.467 297.183L616.203 297.246L615.993 293.072L616.874 293.028C617.607 291.64 618.209 289.967 618.678 288.008C619.153 286.05 619.381 284.27 619.363 282.67L624.489 282.411L625.005 292.617L626.448 292.544L626.659 296.719ZM623.678 292.684L623.223 283.672L620.625 283.803C620.595 285.067 620.357 286.596 619.91 288.392C619.463 290.182 618.914 291.704 618.263 292.957L623.678 292.684Z" fill="#D69153"/>
<path d="M640.684 292.778L639.001 289.258L634.435 289.591L633.297 293.316L631.957 293.414L635.626 281.647L636.74 281.566L642.055 292.678L640.684 292.778ZM638.501 288.096L636.919 284.663C636.715 284.229 636.499 283.693 636.269 283.057C636.191 283.564 636.068 284.124 635.898 284.737L634.816 288.365L638.501 288.096Z" fill="#D69153"/>
<path d="M654.545 291.561L649.699 281.864L649.636 281.87C649.787 282.661 649.917 283.606 650.025 284.705L650.736 291.935L649.515 292.055L648.398 280.688L650.388 280.493L654.91 289.515L654.972 289.509L657.681 279.776L659.656 279.582L660.773 290.949L659.451 291.079L658.732 283.755C658.649 282.915 658.596 281.999 658.571 281.007L658.509 281.013L655.611 291.456L654.545 291.561Z" fill="#D69153"/>
<path d="M668.046 278.638L669.278 278.484L670.068 284.786C670.213 285.949 670.309 287.005 670.354 287.955L670.416 287.947L675.589 277.694L677.03 277.513L678.449 288.846L677.209 289.002L676.428 282.761C676.298 281.723 676.205 280.627 676.15 279.474L676.08 279.482L670.907 289.791L669.465 289.971L668.046 278.638Z" fill="#D69153"/>
<path d="M683.894 283.258C814.196 278.337 908.001 50.5002 908 -3.50024" stroke="#D69153"/>
</g>
<defs>
<clipPath id="clip0_385_1727">
<rect width="919" height="309" fill="white"/>
</clipPath>
</defs>
</svg>
