<svg width="987" height="774" viewBox="0 0 987 774" fill="none" xmlns="http://www.w3.org/2000/svg">
<g clip-path="url(#clip0_385_1300)">
<path d="M540.509 538.738C640.008 489.239 972.51 118.238 883.009 1.23853" stroke="#D69153"/>
<path d="M279.683 664.005L278.207 664.237L277.269 658.263L270.584 659.312L271.521 665.286L270.045 665.518L268.053 652.823L269.529 652.592L270.377 657.993L277.062 656.943L276.215 651.543L277.691 651.311L279.683 664.005Z" fill="#D69153"/>
<path d="M298.573 653.982C298.963 656.002 298.758 657.689 297.957 659.043C297.163 660.396 295.856 661.248 294.038 661.599C292.18 661.958 290.635 661.669 289.404 660.731C288.177 659.786 287.363 658.279 286.963 656.208C286.566 654.154 286.765 652.465 287.56 651.142C288.354 649.813 289.682 648.968 291.546 648.608C293.359 648.258 294.885 648.56 296.126 649.514C297.366 650.468 298.182 651.957 298.573 653.982ZM288.52 655.925C288.85 657.633 289.463 658.861 290.359 659.607C291.26 660.346 292.403 660.581 293.79 660.313C295.188 660.043 296.158 659.399 296.702 658.381C297.245 657.363 297.351 655.997 297.02 654.283C296.692 652.585 296.087 651.369 295.205 650.632C294.327 649.888 293.192 649.651 291.8 649.92C290.402 650.19 289.423 650.839 288.864 651.866C288.309 652.886 288.194 654.239 288.52 655.925Z" fill="#D69153"/>
<path d="M305.641 645.928L309.18 645.12C310.842 644.741 312.101 644.716 312.957 645.043C313.813 645.371 314.364 646.072 314.609 647.146C314.778 647.888 314.71 648.55 314.403 649.131C314.102 649.704 313.57 650.153 312.808 650.477L312.828 650.563C314.804 650.454 315.984 651.237 316.365 652.911C316.621 654.031 316.44 654.991 315.824 655.793C315.213 656.593 314.228 657.149 312.868 657.459L308.498 658.455L305.641 645.928ZM308.321 650.96L310.72 650.412C311.748 650.178 312.452 649.849 312.83 649.426C313.207 648.998 313.308 648.401 313.134 647.635C312.974 646.933 312.607 646.484 312.034 646.291C311.459 646.091 310.624 646.116 309.527 646.366L307.385 646.855L308.321 650.96ZM308.602 652.193L309.671 656.881L312.285 656.285C313.296 656.054 314.011 655.687 314.431 655.182C314.856 654.671 314.973 653.998 314.782 653.164C314.605 652.387 314.212 651.876 313.603 651.63C313 651.383 312.164 651.381 311.096 651.625L308.602 652.193Z" fill="#D69153"/>
<path d="M332.903 652.5L330.324 648.948L325.34 650.247L324.84 654.601L323.377 654.982L325.039 641.216L326.256 640.899L334.4 652.11L332.903 652.5ZM329.534 647.765L327.085 644.289C326.77 643.85 326.422 643.302 326.039 642.645C326.056 643.222 326.033 643.866 325.97 644.579L325.511 648.813L329.534 647.765Z" fill="#D69153"/>
<path d="M343.698 643.892L341.979 649.985L340.284 650.483L342.159 644.079C341.17 644.058 340.385 643.818 339.805 643.36C339.223 642.895 338.801 642.219 338.54 641.331C338.217 640.229 338.348 639.271 338.933 638.458C339.523 637.638 340.591 637.001 342.137 636.547L345.527 635.551L349.147 647.88L347.714 648.301L346.203 643.157L343.698 643.892ZM344.457 637.212L342.543 637.774C341.514 638.076 340.785 638.483 340.355 638.994C339.925 639.505 339.827 640.159 340.061 640.958C340.542 642.594 341.847 643.099 343.978 642.473L345.842 641.926L344.457 637.212Z" fill="#D69153"/>
<path d="M375.877 639.099L374.466 639.59L372.72 634.577C371.997 635.158 371.382 635.599 370.872 635.9C370.361 636.196 369.812 636.446 369.226 636.651C368.081 637.05 367.106 637.094 366.304 636.785C365.506 636.473 364.935 635.822 364.59 634.831L362.91 630.009L364.321 629.518L365.943 634.174C366.176 634.843 366.523 635.278 366.984 635.477C367.45 635.675 368.078 635.636 368.869 635.36C369.406 635.173 369.904 634.956 370.364 634.709C370.828 634.455 371.474 634.012 372.303 633.382L370.239 627.456L371.65 626.965L375.877 639.099Z" fill="#D69153"/>
<path d="M391.929 633.084L388.97 629.843L384.162 631.69L384.151 636.073L382.74 636.615L382.855 622.749L384.028 622.298L393.373 632.53L391.929 633.084ZM388.053 628.755L385.23 625.574C384.869 625.173 384.461 624.668 384.007 624.057C384.088 624.629 384.138 625.272 384.155 625.987L384.172 630.246L388.053 628.755Z" fill="#D69153"/>
<path d="M400.798 616.829C399.496 617.375 398.649 618.242 398.258 619.43C397.87 620.609 397.993 621.953 398.626 623.46C399.277 625.011 400.142 626.058 401.222 626.602C402.305 627.139 403.52 627.125 404.865 626.56C405.691 626.213 406.572 625.669 407.506 624.927L408.013 626.134C407.321 626.787 406.373 627.366 405.168 627.872C403.423 628.605 401.853 628.641 400.457 627.982C399.067 627.32 397.963 626.014 397.144 624.063C396.631 622.842 396.409 621.677 396.477 620.568C396.551 619.457 396.913 618.473 397.563 617.615C398.219 616.755 399.13 616.08 400.297 615.59C401.54 615.068 402.721 614.839 403.841 614.903L403.754 616.331C402.68 616.286 401.695 616.452 400.798 616.829Z" fill="#D69153"/>
<path d="M419.514 621.384L418.153 622.002L413.388 611.511L409.683 613.194L409.134 611.986L417.904 608.002L418.453 609.21L414.748 610.893L419.514 621.384Z" fill="#D69153"/>
<path d="M435.883 609.436C436.406 610.505 436.454 611.509 436.027 612.449C435.602 613.38 434.729 614.17 433.409 614.816L429.564 616.699L423.914 605.158L425.256 604.501L427.668 609.427L429.965 608.302C431.37 607.614 432.577 607.369 433.587 607.566C434.6 607.755 435.365 608.379 435.883 609.436ZM430.338 614.881L432.698 613.726C434.614 612.788 435.212 611.585 434.493 610.117C434.146 609.406 433.643 609.006 432.986 608.917C432.332 608.82 431.463 609.036 430.379 609.567L428.247 610.611L430.338 614.881Z" fill="#D69153"/>
<path d="M453.763 589.674L454.41 590.853L449.441 593.582L454.979 603.666L453.67 604.385L447.484 593.122L453.763 589.674Z" fill="#D69153"/>
<path d="M473.137 585.837C474.183 587.607 474.557 589.265 474.259 590.81C473.965 592.351 473.021 593.593 471.427 594.535C469.798 595.498 468.246 595.745 466.771 595.276C465.298 594.799 464.024 593.652 462.951 591.836C461.887 590.036 461.506 588.379 461.81 586.865C462.11 585.347 463.078 584.105 464.712 583.139C466.301 582.2 467.84 581.971 469.329 582.452C470.818 582.933 472.087 584.061 473.137 585.837ZM464.322 591.047C465.207 592.545 466.198 593.494 467.292 593.896C468.389 594.289 469.545 594.126 470.761 593.408C471.987 592.683 472.684 591.75 472.854 590.609C473.023 589.467 472.663 588.145 471.775 586.642C470.895 585.154 469.916 584.211 468.838 583.814C467.761 583.409 466.613 583.567 465.392 584.289C464.166 585.013 463.462 585.953 463.281 587.109C463.102 588.256 463.449 589.569 464.322 591.047Z" fill="#D69153"/>
<path d="M485.975 574.655C486.673 575.752 486.834 576.837 486.46 577.908C486.087 578.971 485.204 579.946 483.809 580.832L482.534 581.643L485.245 585.908L483.984 586.71L477.09 575.866L479.901 574.079C482.611 572.356 484.636 572.548 485.975 574.655ZM481.845 580.561L482.98 579.839C484.098 579.129 484.791 578.434 485.061 577.756C485.331 577.077 485.213 576.34 484.707 575.544C484.251 574.827 483.677 574.442 482.984 574.39C482.291 574.337 481.448 574.627 480.454 575.259L479.044 576.155L481.845 580.561Z" fill="#D69153"/>
<path d="M503.052 566.402C504.211 568.1 504.692 569.73 504.494 571.291C504.301 572.848 503.44 574.149 501.91 575.192C500.347 576.259 498.814 576.606 497.312 576.234C495.811 575.854 494.466 574.792 493.277 573.05C492.098 571.322 491.611 569.693 491.815 568.163C492.017 566.628 492.901 565.326 494.47 564.256C495.994 563.216 497.515 562.887 499.032 563.271C500.549 563.654 501.889 564.698 503.052 566.402ZM494.594 572.173C495.575 573.61 496.624 574.493 497.743 574.823C498.863 575.144 500.006 574.906 501.172 574.111C502.348 573.308 502.984 572.332 503.079 571.182C503.174 570.032 502.729 568.736 501.745 567.293C500.771 565.865 499.732 564.988 498.63 564.662C497.53 564.328 496.394 564.56 495.222 565.36C494.046 566.162 493.405 567.146 493.299 568.31C493.195 569.467 493.626 570.754 494.594 572.173Z" fill="#D69153"/>
<path d="M524.091 563.277L522.943 564.12L520.962 561.42L513.762 566.703L515.744 569.403L514.596 570.245L511.814 566.454L512.614 565.867C512.444 564.109 511.973 562.165 511.202 560.035C510.436 557.901 509.549 556.088 508.541 554.596L513.197 551.18L519.998 560.448L521.309 559.486L524.091 563.277ZM518.793 561.332L512.788 553.148L510.428 554.88C511.182 556.085 511.905 557.67 512.597 559.633C513.285 561.591 513.712 563.361 513.876 564.941L518.793 561.332Z" fill="#D69153"/>
<path d="M534.762 550.799L530.982 548.568L526.928 551.745L528.204 555.938L527.014 556.87L523.055 543.581L524.044 542.806L535.98 549.844L534.762 550.799ZM529.786 547.797L526.154 545.585C525.691 545.307 525.153 544.944 524.54 544.494C524.786 545.016 525.022 545.616 525.248 546.295L526.514 550.361L529.786 547.797Z" fill="#D69153"/>
<path d="M258.217 664.176C202.417 677.569 74.359 751.827 -39.9606 843.5" stroke="#D69153"/>
</g>
<defs>
<clipPath id="clip0_385_1300">
<rect width="987" height="774" fill="white"/>
</clipPath>
</defs>
</svg>
