<svg width="40" height="40" viewBox="0 0 40 40" fill="none" xmlns="http://www.w3.org/2000/svg">
<path d="M23.8571 23.8571C20.7143 27.1 20.4857 31.1429 20.2143 40C28.4714 40 34.1714 39.9714 37.1143 37.1143C39.9714 34.1714 40 28.2 40 20.2143C31.1429 20.5 27.1 20.7143 23.8571 23.8571ZM0 20.2143C0 28.2 0.0285714 34.1714 2.88571 37.1143C5.82857 39.9714 11.5286 40 19.7857 40C19.5 31.1429 19.2857 27.1 16.1429 23.8571C12.9 20.7143 8.85714 20.4857 0 20.2143ZM19.7857 0C11.5429 0 5.82857 0.0285714 2.88571 2.88571C0.0285714 5.82857 0 11.8 0 19.7857C8.85714 19.5 12.9 19.2857 16.1429 16.1429C19.2857 12.9 19.5143 8.85714 19.7857 0ZM23.8571 16.1429C20.7143 12.9 20.4857 8.85714 20.2143 0C28.4714 0 34.1714 0.0285714 37.1143 2.88571C39.9714 5.82857 40 11.8 40 19.7857C31.1429 19.5 27.1 19.2857 23.8571 16.1429Z" fill="#383838"/>
<path d="M40 20.2143V19.7857C31.1429 19.5 27.1 19.2857 23.8571 16.1429C20.7143 12.9 20.4857 8.85714 20.2143 0H19.7857C19.5 8.85714 19.2857 12.9 16.1429 16.1429C12.9 19.2857 8.85714 19.5143 0 19.7857V20.2143C8.85714 20.5 12.9 20.7143 16.1429 23.8571C19.2857 27.1 19.5143 31.1429 19.7857 40H20.2143C20.5 31.1429 20.7143 27.1 23.8571 23.8571C27.1 20.7143 31.1429 20.4857 40 20.2143Z" fill="white"/>
</svg>
