<svg xmlns="http://www.w3.org/2000/svg" width="40" height="40" fill="none"><path fill="#383838" d="M23.857 23.857C20.714 27.1 20.486 31.143 20.214 40c8.257 0 13.957-.029 16.9-2.886C39.971 34.171 40 28.2 40 20.214c-8.857.286-12.9.5-16.143 3.643ZM0 20.214c0 7.986.029 13.957 2.886 16.9C5.829 39.971 11.529 40 19.786 40c-.286-8.857-.5-12.9-3.643-16.143C12.9 20.714 8.857 20.486 0 20.214ZM19.786 0c-8.243 0-13.957.029-16.9 2.886C.029 5.829 0 11.8 0 19.786c8.857-.286 12.9-.5 16.143-3.643C19.286 12.9 19.514 8.857 19.786 0Zm4.071 16.143C20.714 12.9 20.486 8.857 20.214 0c8.257 0 13.957.029 16.9 2.886C39.971 5.829 40 11.8 40 19.786c-8.857-.286-12.9-.5-16.143-3.643Z"/><path fill="#fff" d="M40 20.214v-.428c-8.857-.286-12.9-.5-16.143-3.643C20.714 12.9 20.486 8.857 20.214 0h-.428c-.286 8.857-.5 12.9-3.643 16.143C12.9 19.286 8.857 19.514 0 19.786v.428c8.857.286 12.9.5 16.143 3.643C19.286 27.1 19.514 31.143 19.786 40h.428c.286-8.857.5-12.9 3.643-16.143C27.1 20.714 31.143 20.486 40 20.214Z"/></svg>