<svg xmlns="http://www.w3.org/2000/svg" width="44" height="30" fill="none"><path fill="#383838" fill-rule="evenodd" d="M4.525 29.114a5.138 5.138 0 0 1-2.087-1.204 4.974 4.974 0 0 1-1.284-2.008C-.314 21.976-.75 5.575 2.078 2.337A5.485 5.485 0 0 1 5.776.532c7.585-.797 31.019-.69 33.71.265a5.31 5.31 0 0 1 2.023 1.181 5.14 5.14 0 0 1 1.294 1.924c1.604 4.06 1.658 18.816-.217 22.717a5.077 5.077 0 0 1-2.366 2.335c-2.827 1.38-31.943 1.354-35.695.16Zm12.043-7.697 13.593-6.9-13.593-6.953v13.853Z" clip-rule="evenodd"/></svg>