<svg xmlns="http://www.w3.org/2000/svg" width="61" height="61" fill="none"><circle cx="30.794" cy="30.31" r="30" fill="#005E9B"/><g clip-path="url(#a)"><g stroke="#fff" stroke-linecap="round" stroke-linejoin="round" stroke-miterlimit="10" stroke-width="2" clip-path="url(#b)"><path d="M38.794 41.31h-16V30.242c0-4.275 3.511-7.67 7.934-7.67s7.935 3.395 7.935 7.67V41.31h.13Z"/><path d="M27.997 26.723h5.724m-7.155 9.306h8.456m-6.765-13.08v-.376c0-1.257 1.04-2.263 2.341-2.263h.39c1.3 0 2.343 1.006 2.343 2.263v.503m1.69 18.234h-8.585v-7.545c0-1.006.78-1.76 1.82-1.76H33.2c1.04 0 1.82.754 1.82 1.76l.002 7.545Z"/></g></g><defs><clipPath id="a"><path fill="#fff" d="M18.794 18.31h24v24h-24z"/></clipPath><clipPath id="b"><path fill="#fff" d="M21.794 19.31h18v23h-18z"/></clipPath></defs></svg>