<svg xmlns="http://www.w3.org/2000/svg" width="61" height="60" fill="none"><circle cx="30.794" cy="30" r="30" fill="#005E9B"/><g clip-path="url(#a)"><g clip-path="url(#b)"><path fill="#fff" stroke="#fff" d="M41.565 28.093a1.222 1.222 0 0 0-.402-.335 1.09 1.09 0 0 0-.49-.122h-.504v-.428c0-.77-.637-1.394-1.418-1.394h-.667v-.79c0-.372-.15-.734-.413-.995-.523-.52-1.427-.52-1.95 0-.127.123-.23.276-.302.447-.071.172-.11.358-.112.548v3.706H26.28v-3.706c0-.371-.151-.734-.415-.995-.522-.518-1.426-.518-1.949 0-.128.123-.23.276-.302.447-.071.172-.11.358-.112.548v.79h-.747c-.35 0-.682.133-.935.375a1.24 1.24 0 0 0-.292.42 1.38 1.38 0 0 0-.11.52v.507h-.5c-.337 0-.663.167-.895.459a1.651 1.651 0 0 0-.34 1.024v2.134c0 .384.12.748.34 1.025.232.292.558.459.896.459h.5v.506c0 .352.146.695.402.94.252.243.583.376.934.376h.747v.79c0 .37.151.734.413.994s.608.402.975.402c.368 0 .714-.143.976-.402.263-.26.414-.623.414-.995v-3.704h9.027v3.704c0 .372.151.735.414.995.262.26.608.402.975.402.368 0 .714-.143.975-.402.263-.26.414-.623.414-.995v-.79h.666c.781 0 1.418-.625 1.418-1.393v-.428h.504c.336 0 .661-.167.892-.457.219-.276.34-.64.34-1.02v-2.148c0-.382-.121-.743-.34-1.02Zm-20.647 3.915a.444.444 0 0 1-.2-.055.498.498 0 0 1-.162-.142.909.909 0 0 1-.18-.558V29.12c0-.21.066-.414.18-.558.044-.06.1-.109.162-.143a.444.444 0 0 1 .2-.054h.5v3.644h-.5v-.001Zm1.836 1.822a.675.675 0 0 1-.465-.183.525.525 0 0 1-.128-.18.588.588 0 0 1-.05-.224V27.13a.56.56 0 0 1 .178-.405.677.677 0 0 1 .465-.183h.747v7.288h-.747Zm2.83 1.518c0 .175-.07.34-.196.465a.737.737 0 0 1-.995 0 .614.614 0 0 1-.144-.208.683.683 0 0 1-.054-.257V25.024a.683.683 0 0 1 .053-.257.617.617 0 0 1 .143-.208.712.712 0 0 1 .996 0 .65.65 0 0 1 .198.465v10.324Zm.694-4.433v-1.458h9.028v1.458h-9.028Zm11.111 4.433a.65.65 0 0 1-.196.465.737.737 0 0 1-.995 0 .613.613 0 0 1-.144-.208.68.68 0 0 1-.053-.257V25.024c0-.174.07-.34.195-.465a.712.712 0 0 1 .997 0c.127.125.197.29.197.465v10.324Zm2.084-2.183c0 .367-.325.665-.723.665h-.667v-7.288h.667c.398 0 .723.299.723.666v5.957Zm1.736-1.906a.906.906 0 0 1-.178.554.495.495 0 0 1-.161.141.44.44 0 0 1-.198.054h-.504v-3.644h.504c.131 0 .258.07.359.196a.902.902 0 0 1 .178.553v2.146Z"/></g></g><defs><clipPath id="a"><path fill="#fff" d="M18.794 18.64h24v24h-24z"/></clipPath><clipPath id="b"><path fill="#fff" d="M18.794 22.64h24v15h-24z"/></clipPath></defs></svg>