<svg xmlns="http://www.w3.org/2000/svg" width="61" height="60" fill="none"><circle cx="30.794" cy="30" r="30" fill="#005E9B"/><g clip-path="url(#a)"><path stroke="#fff" stroke-linecap="round" stroke-miterlimit="10" stroke-width="2" d="M30.794 30v5.5m3-2.75h-6M34.4 22.667h-7.216c-.76 0-1.391-.557-1.391-1.223v-1.222c0-.666.633-1.222 1.392-1.222H34.4c.76 0 1.392.556 1.392 1.222v1.334c0 .555-.633 1.111-1.392 1.111Zm-7.646.118v2.365c0 .473-.27.947-.538 1.183l-1.886 1.538c-.402.355-.537.71-.537 1.183v10.172c0 .946.941 1.774 2.02 1.774h9.96c1.078 0 2.02-.828 2.02-1.774V29.172c0-.473-.27-.946-.54-1.183l-2.018-1.774c-.403-.355-.538-.71-.538-1.183v-2.365h-7.942v.118Z"/></g><defs><clipPath id="a"><path fill="#fff" d="M22.794 18h16v24h-16z"/></clipPath></defs></svg>