<svg xmlns="http://www.w3.org/2000/svg" width="60" height="60" fill="none"><circle cx="30" cy="30" r="30" fill="#005E9B"/><g clip-path="url(#a)"><path fill="#fff" stroke="#fff" stroke-width=".5" d="M29.985 40.211v-3.565a5.737 5.737 0 0 0 7.487-5.454 5.75 5.75 0 0 0-1.572-3.94 4.738 4.738 0 0 0-1.972-4.665 4.714 4.714 0 0 0-7.572-2.68 4.713 4.713 0 0 0-1.644 2.68 4.74 4.74 0 0 0-1.973 4.663 5.748 5.748 0 0 0-1.57 3.942 5.737 5.737 0 0 0 7.486 5.454v3.566h-7.798v1.329h16.925v-1.329h-7.797Zm-3.087-4.618a4.406 4.406 0 0 1-4.401-4.4 4.414 4.414 0 0 1 1.419-3.236l.29-.269-.098-.384a3.4 3.4 0 0 1 1.547-3.745l.273-.162.045-.314a3.396 3.396 0 0 1 3.347-2.897 3.396 3.396 0 0 1 3.347 2.897l.045.314.272.163a3.4 3.4 0 0 1 1.547 3.745l-.097.383.29.27a4.414 4.414 0 0 1 1.419 3.234 4.405 4.405 0 0 1-6.158 4.036v-2.431l2.479-2.48-.94-.94-1.54 1.54v-5.185h-1.329v2.526l-1.54-1.538-.94.94 2.48 2.479v5.09a4.415 4.415 0 0 1-1.758.365l.001-.001Z"/></g><defs><clipPath id="a"><path fill="#fff" d="M20 18h18v24H20z"/></clipPath></defs></svg>