<svg xmlns="http://www.w3.org/2000/svg" width="60" height="60" fill="none"><circle cx="30" cy="30" r="30" fill="#005E9B"/><g clip-path="url(#a)"><path fill="#fff" d="M20 30c0-.865.11-1.703.316-2.504a3 3 0 0 0 2.674-4.629 9.99 9.99 0 0 1 4.335-2.505 3 3 0 0 0 5.348 0 9.99 9.99 0 0 1 4.335 2.505 3 3 0 0 0 2.675 4.63 10.036 10.036 0 0 1 0 5.007 3 3 0 0 0-2.675 4.63 9.99 9.99 0 0 1-4.335 2.504 3 3 0 0 0-5.348 0 9.99 9.99 0 0 1-4.335-2.505 3 3 0 0 0-2.675-4.63A10.056 10.056 0 0 1 20 30Zm4.804 3c.63 1.091.81 2.346.564 3.524.408.29.842.541 1.297.75A4.993 4.993 0 0 1 30 36c1.26 0 2.438.471 3.335 1.274.455-.209.889-.46 1.297-.75A4.993 4.993 0 0 1 35.196 33a4.993 4.993 0 0 1 2.77-2.25 8.134 8.134 0 0 0 0-1.5A4.993 4.993 0 0 1 35.195 27a4.993 4.993 0 0 1-.564-3.524 7.985 7.985 0 0 0-1.297-.75A4.993 4.993 0 0 1 30 24a4.993 4.993 0 0 1-3.335-1.274c-.455.21-.89.46-1.297.75A4.993 4.993 0 0 1 24.804 27a4.993 4.993 0 0 1-2.77 2.25 8.134 8.134 0 0 0 0 1.5 4.99 4.99 0 0 1 2.77 2.25ZM30 33a3 3 0 1 1 0-6 3 3 0 0 1 0 6Zm0-2a1 1 0 1 0 0-2 1 1 0 0 0 0 2Z"/></g><defs><clipPath id="a"><path fill="#fff" d="M18 18h24v24H18z"/></clipPath></defs></svg>