<svg xmlns="http://www.w3.org/2000/svg" width="61" height="61" fill="none"><circle cx="30.794" cy="30.03" r="30" fill="#005E9B"/><g clip-path="url(#a)"><g clip-path="url(#b)"><path fill="#fff" stroke="#fff" stroke-width=".5" d="M38.96 24.03h-2.54a5.675 5.675 0 0 0-5.627-5 5.675 5.675 0 0 0-5.627 5h-2.54a.833.833 0 0 0-.832.833V39.53c0 .46.372.833.832.833h16.335c.46 0 .833-.373.833-.833V24.863a.833.833 0 0 0-.833-.833Zm-8.166-3.333a4.006 4.006 0 0 1 3.943 3.333H26.85a4.006 4.006 0 0 1 3.945-3.333Zm7.332 18H23.462v-13h1.666v2.5a.833.833 0 1 0 1.667 0v-2.5h8v2.5a.833.833 0 1 0 1.667 0v-2.5h1.666v13Z"/></g></g><defs><clipPath id="a"><path fill="#fff" d="M18.794 18.03h24v24h-24z"/></clipPath><clipPath id="b"><path fill="#fff" d="M20.794 18.03h20v23h-20z"/></clipPath></defs></svg>