<svg xmlns="http://www.w3.org/2000/svg" width="92" height="92" fill="none"><circle cx="46" cy="46" r="46" fill="#D69153"/><path fill="#fff" d="M57.543 51.725h-.136v7.491h-2.242V45.201h2.174l2.844 8.01h.128V45.2h2.248v14.015h-2.173l-2.843-7.491Zm-9.929 5.489h-2L43.42 45.201h2.265l.973 6.373.045.446h.181l.068-.446 1.042-6.373h1.766l1.04 6.373.068.446h.182l.046-.446.973-6.373h2.264l-2.195 12.013H50.14l-1.083-5.547-.135-.32h-.09l-.136.32-1.082 5.547Zm-4.957-10.759a3.2 3.2 0 0 0-.396-.546 2.418 2.418 0 0 0-.577-.473 3.262 3.262 0 0 0-.804-.339 4.044 4.044 0 0 0-1.075-.128 4.162 4.162 0 0 0-1.086.128 3.214 3.214 0 0 0-.816.34c-.22.13-.411.289-.566.472a3.63 3.63 0 0 0-.385.546c-.25.464-.389.963-.407 1.47v16.588c.017.511.155 1.015.407 1.483.108.189.237.368.385.537.159.18.35.34.566.473.245.152.521.267.816.34.352.084.718.124 1.086.12a4.35 4.35 0 0 0 1.075-.12 2.844 2.844 0 0 0 1.381-.813c.155-.167.287-.347.396-.537.254-.468.394-.971.414-1.483V47.92a3.347 3.347 0 0 0-.414-1.47m-2.03 18.063c.005.17-.026.34-.091.5a.796.796 0 0 1-.237.353.85.85 0 0 1-.487.148.85.85 0 0 1-.488-.148.796.796 0 0 1-.237-.353 1.225 1.225 0 0 1-.091-.5V47.92a1.31 1.31 0 0 1 .091-.5.897.897 0 0 1 .237-.34.808.808 0 0 1 .488-.157.81.81 0 0 1 .487.157.896.896 0 0 1 .237.34c.063.16.094.33.091.5v16.593ZM55.5 27.181h6.187l-.354 2.002h-3.387v3.997h2.124v2.01h-2.124v6.006h3.741L61.33 43.2H55.5V27.181Zm-12.001-2.035h-2.99L37.337 43.2h2.382l.828-4.004h2.883l.656 4.004h2.442L43.5 25.148Zm-2.734 12.046 1.177-8.338h.138l1.133 8.338h-2.448Zm-3.901 4.004L36.5 43.2h-5.832V29.183h2.445v12.013h3.75ZM52.34 43.2h2.378l-2.564-7.993 1.884-4.022h-2.361L49.89 35.19h-.085v-4.005H47.36V43.2h2.446v-4.005l.678-1.458h.116l1.74 5.463Zm-16.187 2.001H29.44v2.06h2.573v13.956h2.446V47.261h1.337l.357-2.06Z"/></svg>