<svg width="37" height="45" viewBox="0 0 37 45" fill="none" xmlns="http://www.w3.org/2000/svg">
<path d="M31.4934 31.5413L18.5003 44.5345L5.50709 31.5413C2.93732 28.9715 1.18729 25.6974 0.478306 22.133C-0.230679 18.5686 0.133221 14.8741 1.52399 11.5165C2.91475 8.1589 5.26992 5.28913 8.29167 3.27007C11.3134 1.25101 14.866 0.17334 18.5003 0.17334C22.1345 0.17334 25.6871 1.25101 28.7088 3.27007C31.7306 5.28913 34.0858 8.1589 35.4765 11.5165C36.8673 14.8741 37.2312 18.5686 36.5222 22.133C35.8132 25.6974 34.0632 28.9715 31.4934 31.5413ZM18.5003 26.7148C20.6662 26.7148 22.7434 25.8544 24.275 24.3229C25.8065 22.7913 26.6669 20.7141 26.6669 18.5482C26.6669 16.3822 25.8065 14.305 24.275 12.7735C22.7434 11.2419 20.6662 10.3815 18.5003 10.3815C16.3343 10.3815 14.2571 11.2419 12.7255 12.7735C11.194 14.305 10.3336 16.3822 10.3336 18.5482C10.3336 20.7141 11.194 22.7913 12.7255 24.3229C14.2571 25.8544 16.3343 26.7148 18.5003 26.7148ZM18.5003 22.6315C17.4173 22.6315 16.3787 22.2013 15.6129 21.4355C14.8471 20.6698 14.4169 19.6311 14.4169 18.5482C14.4169 17.4652 14.8471 16.4266 15.6129 15.6608C16.3787 14.8951 17.4173 14.4648 18.5003 14.4648C19.5832 14.4648 20.6218 14.8951 21.3876 15.6608C22.1534 16.4266 22.5836 17.4652 22.5836 18.5482C22.5836 19.6311 22.1534 20.6698 21.3876 21.4355C20.6218 22.2013 19.5832 22.6315 18.5003 22.6315Z" fill="white"/>
</svg>
