<svg xmlns="http://www.w3.org/2000/svg" width="693" height="693" fill="none"><g clip-path="url(#a)"><path stroke="#D69153" d="M681.337 793.09c-38.751-117.215-79.388-169.188-181.39-222.176"/><path fill="#D69153" d="m245.702 303.943 10.812-3.684.428 1.257-9.672 3.296 1.625 4.77-1.139.388-2.054-6.027Zm13.523 20.491c-1.708.652-3.216.731-4.525.238-1.306-.488-2.253-1.501-2.84-3.038-.6-1.572-.584-2.969.048-4.191.638-1.219 1.833-2.163 3.585-2.832 1.737-.663 3.246-.748 4.527-.256 1.285.491 2.229 1.524 2.83 3.101.585 1.532.556 2.915-.089 4.148-.644 1.233-1.823 2.176-3.536 2.83Zm-3.245-8.504c-1.445.552-2.426 1.277-2.941 2.177-.509.902-.539 1.939-.092 3.112.452 1.182 1.165 1.933 2.14 2.252.974.319 2.187.202 3.637-.351 1.435-.548 2.408-1.265 2.917-2.151.516-.882.549-1.912.1-3.09-.451-1.182-1.17-1.939-2.155-2.271-.978-.329-2.181-.222-3.606.322Zm14.857 21.533-6.795 2.907c-1.197.512-2.293.553-3.287.122-.994-.43-1.762-1.277-2.302-2.541-.541-1.264-.615-2.391-.223-3.38.395-.985 1.195-1.735 2.402-2.251l6.766-2.895.523 1.221-6.853 2.932c-.876.374-1.446.902-1.711 1.581-.264.68-.198 1.484.2 2.413.379.886.905 1.468 1.579 1.746.679.276 1.459.226 2.34-.151l6.838-2.925.523 1.221Zm-3.213 20.247-.651-1.369 5.976-9.754-.026-.056a42.135 42.135 0 0 1-2.741 1.441l-5.863 2.788-.527-1.108 10.316-4.904.644 1.354-5.948 9.723.026.057c.123-.07.52-.285 1.191-.644a23.229 23.229 0 0 1 1.465-.74l5.919-2.815.534 1.122-10.315 4.905Zm11.717 9.849 1.805 3.438-4.918 2.582a12.522 12.522 0 0 1-1.244-1.43 13.996 13.996 0 0 1-1.141-1.853c-.804-1.531-.976-2.962-.515-4.292.465-1.333 1.519-2.43 3.16-3.292 1.052-.552 2.082-.825 3.091-.819a4.826 4.826 0 0 1 2.771.875c.836.572 1.533 1.391 2.093 2.457.566 1.079.896 2.188.988 3.328l-1.277.088c-.092-1.116-.36-2.096-.803-2.94-.646-1.232-1.518-2.001-2.614-2.307-1.096-.307-2.295-.119-3.595.563-1.365.717-2.226 1.593-2.583 2.627-.354 1.039-.193 2.204.485 3.496a9.86 9.86 0 0 0 1.321 1.927l3.112-1.634-1.187-2.262 1.051-.552Zm3.599 18.882-3.155-5.53 9.92-5.661 3.156 5.53-1.025.585-2.497-4.377-3.196 1.824 2.346 4.112-1.018.581-2.346-4.112-3.651 2.083 2.498 4.377-1.032.588Zm6.605 3.899 1.014-.617 1.995 3.277-1.014.617-1.995-3.277Zm7.618 18.983-.877-1.349 1.977-7.583-4.854 3.154-.724-1.113 9.577-6.224.724 1.114-4.638 3.014 7.443 1.303.83 1.277-7.405-1.216-2.053 7.623Zm13.192-.895 1.852 2.642c.87 1.241 1.314 2.269 1.331 3.083.018.815-.374 1.503-1.176 2.065-.555.389-1.122.554-1.703.497-.573-.056-1.121-.343-1.643-.861l-.064.045c.752 1.59.503 2.824-.746 3.7-.836.585-1.688.759-2.554.521-.864-.234-1.652-.859-2.363-1.874l-2.287-3.263 9.353-6.555Zm-3.242 3.894 1.255 1.791c.538.768 1.045 1.237 1.52 1.406.479.167 1.004.05 1.576-.351.525-.367.77-.82.738-1.356-.029-.54-.33-1.219-.904-2.038l-1.121-1.6-3.064 2.148Zm-.922.646-3.499 2.453 1.368 1.951c.529.755 1.071 1.22 1.627 1.397.564.177 1.157.048 1.779-.389.58-.406.869-.901.867-1.485.001-.579-.278-1.268-.837-2.065l-1.305-1.862Zm8.48 20.803 2.04-3.325-2.762-3.652-3.746 1.07-.81-1.071 11.871-3.317.674.891-6.438 10.501-.829-1.097Zm2.743-4.376 2.022-3.195c.253-.407.585-.88.994-1.418-.468.211-1.005.411-1.612.602l-3.633 1.063 2.229 2.948Zm13.581 11.876c-.898.73-1.838.984-2.823.764-.977-.219-1.928-.898-2.855-2.038l-.848-1.043-3.485 2.834-.838-1.03 8.862-7.206 1.868 2.298c1.801 2.214 1.84 4.022.119 5.421Zm-5.641-3.036.754.927c.743.914 1.428 1.454 2.055 1.623.626.168 1.265-.012 1.916-.541.586-.477.866-1.023.841-1.641-.025-.617-.368-1.332-1.028-2.144l-.937-1.152-3.601 2.928Zm6.7 16.765-.872-1.002 7.731-6.718-2.372-2.731.89-.774 5.617 6.463-.891.774-2.373-2.73-7.73 6.718Zm11.9 13.133 1.691-3.515-3.118-3.352-3.618 1.445-.915-.984 11.472-4.506.761.818-5.336 11.101-.937-1.007Zm2.285-4.633 1.686-3.383c.211-.431.492-.935.845-1.512a14.79 14.79 0 0 1-1.542.763l-3.507 1.427 2.518 2.705Zm9.619 16.769-.94-.938 7.233-7.252-2.628-2.621-1.495 1.157c-1.987 1.542-3.475 2.636-4.465 3.282-.983.646-1.774.989-2.374 1.03-.6.042-1.129-.173-1.587-.644a2.641 2.641 0 0 1-.597-.872l.789-.791c.103.295.264.55.481.767a.942.942 0 0 0 .746.27c.31-.015.716-.165 1.221-.449.511-.284 1.403-.895 2.676-1.832a209.524 209.524 0 0 0 4.658-3.531l4.348 4.336-8.066 8.088Zm21.391 4.441 2.417 2.137c1.135 1.004 1.807 1.9 2.014 2.688.207.788-.014 1.549-.663 2.282-.448.508-.962.801-1.54.881-.57.079-1.17-.072-1.799-.454l-.051.058c1.102 1.372 1.148 2.629.137 3.772-.676.765-1.464 1.132-2.362 1.103-.894-.027-1.806-.45-2.735-1.272l-2.984-2.639 7.566-8.556Zm-2.245 4.543 1.639 1.449c.702.621 1.304.959 1.805 1.013.505.05.989-.186 1.451-.709.425-.48.558-.977.401-1.491-.153-.519-.605-1.109-1.354-1.771l-1.463-1.294-2.479 2.803Zm-.745.843-2.831 3.201 1.785 1.579c.691.61 1.327.937 1.909.978.589.042 1.135-.223 1.639-.792.469-.531.635-1.08.497-1.647-.135-.563-.566-1.168-1.296-1.813l-1.703-1.506Zm20.966 24.477 1.124-3.735-3.602-2.826-3.349 1.99-1.057-.829 10.632-6.237.879.69-3.545 11.796-1.082-.849Zm1.536-4.931 1.139-3.605c.142-.458.341-1 .6-1.625a14.84 14.84 0 0 1-1.405.994l-3.241 1.955 2.907 2.281Zm16.164 8.019c-.682.934-1.526 1.42-2.534 1.459-1.001.037-2.095-.377-3.281-1.243l-1.086-.792-2.647 3.63-1.073-.783 6.731-9.228 2.392 1.745c2.306 1.682 2.805 3.419 1.498 5.212Zm-6.229-1.497.966.704c.951.694 1.751 1.042 2.4 1.045.649.003 1.221-.335 1.715-1.012.445-.61.576-1.211.395-1.801-.182-.59-.696-1.194-1.542-1.811l-1.199-.874-2.735 3.749Zm15.85 13.932c-.637.94-1.388 1.443-2.253 1.512-.86.07-1.852-.276-2.977-1.039l-2.767-1.877 6.413-9.452 5.573 3.782-.663.976-4.473-3.036-2.075 3.058 1.467.996c.832.564 1.443 1.12 1.833 1.668.393.543.587 1.088.582 1.632-.004.545-.224 1.138-.66 1.78Zm-6.253-1.609 1.545 1.048c.819.556 1.508.82 2.069.791.565-.026 1.066-.36 1.501-1.002.416-.612.521-1.176.318-1.692-.204-.516-.778-1.094-1.722-1.734l-1.338-.908-2.373 3.497Zm16.173 11.938-5.383-3.401 6.1-9.656 5.383 3.4-.63.997-4.26-2.691-1.966 3.111 4.003 2.529-.626.99-4.002-2.528-2.245 3.554 4.26 2.691-.634 1.004Zm13.655 8.155-1.389-.815-1.625-7.665-2.93 4.993-1.145-.672 5.779-9.852 1.146.672-2.799 4.771 7.24-2.165 1.314.77-7.167 2.227 1.576 7.736Zm17.405 3.003c-.865 1.61-1.954 2.657-3.266 3.14-1.308.485-2.687.339-4.136-.441-1.482-.796-2.384-1.863-2.705-3.201-.315-1.34-.028-2.836.859-4.487.881-1.638 1.966-2.689 3.257-3.155 1.293-.469 2.683-.305 4.169.494 1.445.777 2.327 1.842 2.646 3.196.319 1.354.044 2.839-.824 4.454Zm-8.016-4.31c-.733 1.363-1 2.553-.802 3.57.206 1.015.861 1.82 1.967 2.414 1.115.599 2.145.701 3.091.305.946-.396 1.787-1.278 2.522-2.645.727-1.353.994-2.532.8-3.535-.187-1.005-.836-1.806-1.946-2.403-1.115-.599-2.153-.702-3.116-.309-.955.392-1.794 1.259-2.516 2.603Zm17.582 2.794 2.898 1.417c1.362.666 2.247 1.351 2.657 2.055.409.705.398 1.497-.032 2.376-.297.609-.714 1.028-1.25 1.259-.529.228-1.147.242-1.855.041l-.034.07c1.428 1.029 1.806 2.228 1.136 3.599-.448.917-1.109 1.481-1.983 1.692-.87.212-1.861.046-2.975-.498l-3.579-1.75 5.017-10.261Zm-.955 4.977 1.965.96c.842.412 1.512.577 2.01.496.5-.086.903-.442 1.21-1.069.281-.576.278-1.091-.011-1.545-.286-.458-.878-.907-1.776-1.346l-1.755-.858-1.643 3.362Zm-.494 1.01-1.877 3.84 2.14 1.046c.828.405 1.528.55 2.1.436.579-.117 1.036-.517 1.37-1.201.311-.636.325-1.209.04-1.719-.279-.508-.856-.975-1.731-1.403l-2.042-.999Zm22.304 9.975c-.739 1.672-1.744 2.799-3.015 3.382-1.267.585-2.653.544-4.158-.121-1.538-.68-2.52-1.675-2.943-2.984-.417-1.312-.246-2.825.512-4.54.752-1.701 1.753-2.832 3.005-3.395 1.253-.568 2.651-.511 4.195.171 1.5.664 2.461 1.658 2.883 2.984.422 1.325.263 2.826-.479 4.503Zm-8.324-3.68c-.625 1.415-.8 2.622-.524 3.621.282.996.998 1.748 2.146 2.255 1.157.512 2.193.534 3.106.066.912-.467 1.683-1.411 2.31-2.831.621-1.405.797-2.6.526-3.585-.263-.988-.972-1.737-2.125-2.246-1.157-.512-2.201-.535-3.13-.069-.922.464-1.692 1.393-2.309 2.789Z"/><path stroke="#D69153" d="M-.947-13.562c103.192 67.768 222.612 191.26 247.394 303.5"/></g><defs><clipPath id="a"><path fill="#fff" d="M0 0h693v693H0z"/></clipPath></defs></svg>