<svg width="92" height="92" viewBox="0 0 92 92" fill="none" xmlns="http://www.w3.org/2000/svg">
<circle cx="46" cy="46" r="46" fill="#D69153"/>
<path d="M57.5432 51.7247H57.4065V59.2163H55.1654V45.2013H57.3389L60.1831 53.2104H60.3114V45.2013H62.5595V59.2163H60.386L57.5432 51.7247Z" fill="white"/>
<path d="M47.6141 57.2144H45.6144L43.4202 45.2013H45.6848L46.6577 51.5745L46.7033 52.0196H46.884L46.9517 51.5745L47.9936 45.2013H49.76L50.8005 51.5745L50.8681 52.0196H51.0503L51.0958 51.5745L52.0687 45.2013H54.3333L52.1377 57.2144H50.1395L49.0575 51.6671L48.9223 51.3462H48.8312L48.696 51.6671L47.6141 57.2144Z" fill="white"/>
<path d="M42.6571 46.4554C42.5471 46.263 42.4145 46.0799 42.261 45.9086C42.1003 45.7273 41.9057 45.5679 41.6842 45.4364C41.4387 45.2905 41.1674 45.1762 40.8797 45.0974C40.5323 45.0069 40.1692 44.9634 39.8046 44.9686C39.4366 44.9638 39.0699 45.0073 38.7186 45.0974C38.4267 45.1747 38.1515 45.2891 37.903 45.4364C37.683 45.5663 37.4916 45.726 37.3372 45.9086C37.1902 46.0816 37.0614 46.2646 36.9522 46.4554C36.7013 46.9187 36.563 47.4176 36.5451 47.9241V64.5128C36.5621 65.0242 36.7003 65.528 36.9522 65.9962C37.06 66.1845 37.1889 66.3641 37.3372 66.5329C37.4957 66.7131 37.6864 66.8727 37.903 67.0063C38.1479 67.1583 38.4241 67.2731 38.7186 67.3452C39.0712 67.4298 39.4373 67.4705 39.8046 67.4661C40.1684 67.4709 40.531 67.4302 40.8797 67.3452C41.17 67.2717 41.4423 67.1569 41.6842 67.0063C41.9022 66.871 42.0963 66.7117 42.261 66.5329C42.4158 66.3659 42.5485 66.186 42.6571 65.9962C42.9107 65.5283 43.0512 65.0245 43.0711 64.5128V47.9196C43.0503 47.4128 42.9097 46.914 42.6571 46.4509M40.6271 64.5128C40.6324 64.6827 40.6015 64.8521 40.536 65.0133C40.4937 65.1451 40.4121 65.2662 40.2987 65.3658C40.1632 65.4613 39.9903 65.5139 39.8115 65.5139C39.6327 65.5139 39.4599 65.4613 39.3244 65.3658C39.2109 65.2662 39.1294 65.1451 39.087 65.0133C39.0215 64.8521 38.9907 64.6827 38.996 64.5128V47.9196C38.9931 47.7499 39.0238 47.5808 39.087 47.4191C39.1356 47.2935 39.2166 47.178 39.3244 47.0802C39.4567 46.9793 39.6308 46.9233 39.8115 46.9233C39.9923 46.9233 40.1664 46.9793 40.2987 47.0802C40.4065 47.178 40.4875 47.2935 40.536 47.4191C40.5993 47.5808 40.63 47.7499 40.6271 47.9196V64.5128Z" fill="white"/>
<path d="M55.5008 27.1812H61.6873L61.3326 29.1832H57.9461V33.1804H60.0699V35.1903H57.9461V41.1962H61.6873L61.3299 43.1993H55.5008V27.1812Z" fill="white"/>
<path d="M43.4989 25.1465H40.5098L37.3358 43.1994H39.7177L40.5457 39.1954H43.4285L44.0854 43.1994H46.5266L43.4989 25.1465ZM40.7651 37.1923L41.9423 28.8544H42.0803L43.2132 37.1923H40.7651Z" fill="white"/>
<path d="M36.8639 41.1963L36.5009 43.1994H30.669V29.1832H33.1144V41.1963H36.8639Z" fill="white"/>
<path d="M52.3406 43.1994H54.7183L52.1543 35.2073L54.038 31.1852H51.6768L49.8911 35.1903H49.8055V31.1852H47.3601V43.1994H49.8055V39.1943L50.4845 37.7357H50.6004L52.3406 43.1994Z" fill="white"/>
<path d="M36.1531 45.2013H29.4395V47.2609H32.0131V61.2172H34.4585V47.2609H35.7957L36.1531 45.2013Z" fill="white"/>
</svg>
