<svg width="60" height="60" viewBox="0 0 60 60" fill="none" xmlns="http://www.w3.org/2000/svg">
<circle cx="30" cy="30" r="30" fill="#005E9B"/>
<g clip-path="url(#clip0_802_92)">
<path d="M30 30V35.5M33 32.75H27M33.608 22.667H26.392C25.632 22.667 25 22.11 25 21.444V20.222C25 19.556 25.633 19 26.392 19H33.608C34.368 19 35 19.556 35 20.222V21.556C35 22.111 34.367 22.667 33.608 22.667ZM25.962 22.785V25.15C25.962 25.623 25.692 26.097 25.423 26.333L23.538 27.871C23.135 28.226 23 28.581 23 29.054V39.226C23 40.172 23.942 41 25.02 41H34.98C36.058 41 37 40.172 37 39.226V29.172C37 28.699 36.73 28.226 36.461 27.989L34.442 26.215C34.039 25.86 33.904 25.505 33.904 25.032V22.667H25.962V22.785Z" stroke="white" stroke-width="2" stroke-miterlimit="10" stroke-linecap="round"/>
</g>
<defs>
<clipPath id="clip0_802_92">
<rect width="16" height="24" fill="white" transform="translate(22 18)"/>
</clipPath>
</defs>
</svg>
