<svg width="24" height="15" viewBox="0 0 24 15" fill="none" xmlns="http://www.w3.org/2000/svg">
<path d="M22.7714 5.45325C22.6597 5.31086 22.5225 5.19656 22.3689 5.11781C22.2153 5.03907 22.0486 4.99765 21.8798 4.99625H21.3749V4.56825C21.3749 3.79925 20.7385 3.17425 19.9571 3.17425H19.2905V2.38425C19.2905 2.01225 19.1394 1.65025 18.8771 1.38925C18.3545 0.87025 17.4505 0.87025 16.9278 1.38925C16.8001 1.51263 16.6971 1.66513 16.6256 1.83667C16.5542 2.00821 16.516 2.19485 16.5136 2.38425V6.09025H7.48603V2.38425C7.48603 2.01325 7.33492 1.65025 7.07181 1.38925C6.54914 0.87125 5.64514 0.87125 5.12248 1.38925C4.99472 1.51263 4.89173 1.66513 4.82032 1.83667C4.7489 2.00821 4.71071 2.19485 4.70825 2.38425V3.17425H3.96159C3.61048 3.17425 3.27892 3.30725 3.02648 3.54925C2.90329 3.66414 2.80362 3.80762 2.73427 3.96985C2.66493 4.13209 2.62755 4.30926 2.6247 4.48925V4.99625H2.12514C1.78736 4.99625 1.46114 5.16325 1.22914 5.45525C1.0078 5.73801 0.886623 6.10248 0.888698 6.47925V8.61325C0.888698 8.99725 1.00959 9.36125 1.23003 9.63825C1.46114 9.93025 1.78736 10.0972 2.12514 10.0972H2.6247V10.6032C2.6247 10.9552 2.77136 11.2982 3.02736 11.5442C3.27892 11.7862 3.61048 11.9192 3.96159 11.9192H4.70825V12.7092C4.70825 13.0802 4.85936 13.4432 5.12159 13.7032C5.38381 13.9633 5.72959 14.1052 6.0967 14.1052C6.4647 14.1052 6.81048 13.9622 7.07181 13.7032C7.33492 13.4432 7.48603 13.0802 7.48603 12.7083V9.00425H16.5136V12.7083C16.5136 13.0802 16.6647 13.4432 16.9278 13.7032C17.1891 13.9633 17.5349 14.1052 17.902 14.1052C18.27 14.1052 18.6158 13.9622 18.8771 13.7032C19.1403 13.4432 19.2914 13.0802 19.2914 12.7083V11.9183H19.9571C20.7385 11.9183 21.3749 11.2932 21.3749 10.5252V10.0972H21.8789C22.2149 10.0972 22.5403 9.93025 22.7714 9.64025C22.99 9.36425 23.1109 9.00025 23.1109 8.62025V6.47225C23.1109 6.09025 22.99 5.72925 22.7714 5.45325ZM2.12425 9.36825C2.05496 9.36626 1.98685 9.34766 1.92446 9.31369C1.86207 9.27971 1.80685 9.23115 1.76248 9.17125C1.64416 9.01602 1.58003 8.81771 1.58203 8.61325V6.48025C1.58203 6.27025 1.64781 6.06625 1.76248 5.92225C1.80685 5.86235 1.86207 5.81379 1.92446 5.77981C1.98685 5.74584 2.05496 5.72724 2.12425 5.72525H2.62381V9.36925H2.12425V9.36825ZM3.9607 11.1902C3.79148 11.1923 3.62698 11.1275 3.49581 11.0072C3.44174 10.9586 3.3978 10.8972 3.36709 10.8274C3.33637 10.7576 3.31963 10.6811 3.31803 10.6032V4.49025C3.31803 4.33925 3.38114 4.19525 3.49581 4.08525C3.62709 3.96519 3.79152 3.90047 3.9607 3.90225H4.70736V11.1902H3.9607ZM6.79092 12.7083C6.79092 12.8833 6.7207 13.0483 6.59448 13.1733C6.33403 13.4313 5.85848 13.4313 5.59892 13.1733C5.53823 13.1163 5.48918 13.0452 5.45512 12.965C5.42106 12.8847 5.4028 12.7972 5.40159 12.7083V2.38425C5.4027 2.29551 5.42074 2.20808 5.45447 2.12786C5.48821 2.04764 5.53686 1.9765 5.59714 1.91925C5.73635 1.7865 5.91333 1.71445 6.09581 1.71625C6.28248 1.71625 6.46381 1.79025 6.59359 1.91925C6.7207 2.04425 6.79092 2.20925 6.79092 2.38425V12.7083ZM7.48425 8.27525V6.81725H16.5127V8.27525H7.48603H7.48425ZM18.5954 12.7083C18.5954 12.8833 18.526 13.0483 18.3998 13.1733C18.1394 13.4313 17.6638 13.4313 17.4043 13.1733C17.3436 13.1163 17.2945 13.0452 17.2605 12.965C17.2264 12.8847 17.2081 12.7972 17.2069 12.7083V2.38425C17.2069 2.21025 17.2771 2.04425 17.4025 1.91925C17.5417 1.7865 17.7187 1.71445 17.9011 1.71625C18.0878 1.71625 18.2691 1.79025 18.3989 1.91925C18.526 2.04425 18.5963 2.20925 18.5963 2.38425L18.5954 12.7083ZM20.6789 10.5252C20.6789 10.8922 20.3545 11.1902 19.9563 11.1902H19.2896V3.90225H19.9563C20.3545 3.90225 20.6789 4.20125 20.6789 4.56825V10.5252ZM22.4149 8.61925C22.417 8.822 22.3539 9.01877 22.2371 9.17325C22.1931 9.23266 22.1383 9.28079 22.0763 9.31442C22.0144 9.34805 21.9468 9.3664 21.878 9.36825H21.374V5.72425H21.878C22.0096 5.72425 22.1367 5.79425 22.2371 5.92025C22.35 6.06225 22.4149 6.26425 22.4149 6.47325V8.61925Z" fill="#383838" stroke="#383838"/>
</svg>
