<svg width="16" height="24" viewBox="0 0 16 24" fill="none" xmlns="http://www.w3.org/2000/svg">
<path d="M8 12V17.5M11 14.75H5M11.608 4.667H4.392C3.632 4.667 3 4.11 3 3.444V2.222C3 1.556 3.633 1 4.392 1H11.608C12.368 1 13 1.556 13 2.222V3.556C13 4.111 12.367 4.667 11.608 4.667ZM3.962 4.785V7.15C3.962 7.623 3.692 8.097 3.423 8.333L1.538 9.871C1.135 10.226 1 10.581 1 11.054V21.226C1 22.172 1.942 23 3.02 23H12.98C14.058 23 15 22.172 15 21.226V11.172C15 10.699 14.73 10.226 14.461 9.989L12.442 8.215C12.039 7.86 11.904 7.505 11.904 7.032V4.667H3.962V4.785Z" stroke="#383838" stroke-width="2" stroke-miterlimit="10" stroke-linecap="round"/>
</svg>
