<svg width="18" height="24" viewBox="0 0 18 24" fill="none" xmlns="http://www.w3.org/2000/svg">
<path d="M9.98514 22.2109V18.6461C10.553 18.8286 11.1458 18.9218 11.7423 18.9221C13.2614 18.9203 14.7178 18.316 15.792 17.2418C16.8662 16.1676 17.4705 14.7112 17.4723 13.1921C17.4723 11.7264 16.9031 10.3104 15.9003 9.25093C15.9437 8.99148 15.9655 8.72886 15.9654 8.46579C15.9632 7.7029 15.7768 6.95182 15.4221 6.27641C15.0674 5.60099 14.5548 5.02121 13.928 4.58636C13.7026 3.5313 13.1222 2.58546 12.2835 1.90673C11.4449 1.228 10.3989 0.857452 9.31999 0.856934C8.24104 0.857135 7.19483 1.22757 6.35614 1.90635C5.51745 2.58513 4.93709 3.53115 4.71199 4.58636C4.08517 5.02121 3.57261 5.60099 3.21789 6.27641C2.86317 6.95182 2.67678 7.7029 2.67456 8.46579C2.67456 8.72893 2.69685 8.99208 2.73971 9.25008C1.73237 10.3156 1.17031 11.7258 1.16856 13.1921C1.17038 14.7112 1.77466 16.1676 2.84885 17.2418C3.92304 18.316 5.37943 18.9203 6.89856 18.9221C7.49599 18.9221 8.08999 18.8278 8.65571 18.6461V22.2118H0.857422V23.5404H17.7826V22.2118H9.98599L9.98514 22.2109ZM6.89856 17.5926C5.73173 17.5915 4.613 17.1275 3.78784 16.3026C2.96268 15.4776 2.4985 14.3589 2.49714 13.1921C2.49814 12.5843 2.62466 11.9832 2.86876 11.4266C3.11286 10.8699 3.46929 10.3697 3.91571 9.95722L4.20714 9.68808L4.10856 9.30408C4.03896 9.03009 4.00383 8.74848 4.00399 8.46579C4.00399 7.28122 4.63656 6.16693 5.65571 5.55922L5.92828 5.39636L5.97285 5.08265C6.09215 4.27929 6.49541 3.54528 7.1095 3.01375C7.72358 2.48223 8.50783 2.18838 9.31999 2.1855C10.1322 2.18838 10.9164 2.48223 11.5305 3.01375C12.1446 3.54528 12.5478 4.27929 12.6671 5.08265L12.7126 5.39636L12.9843 5.55922C13.4864 5.8604 13.9023 6.28613 14.1917 6.79519C14.4811 7.30424 14.6341 7.87939 14.636 8.46493C14.636 8.74951 14.6017 9.03151 14.5314 9.30493L14.4337 9.68808L14.7251 9.95722C15.1714 10.3698 15.5277 10.87 15.7716 11.4267C16.0156 11.9833 16.142 12.5843 16.1428 13.1921C16.1417 13.9221 15.9592 14.6404 15.6117 15.2823C15.2642 15.9243 14.7626 16.4699 14.152 16.87C13.5415 17.2702 12.841 17.5123 12.1137 17.5747C11.3864 17.6371 10.6549 17.5178 9.98514 17.2275V14.7966L12.464 12.3169L11.5246 11.3775L9.98514 12.9169V7.73208H8.65571V10.2581L7.11456 8.71951L6.17514 9.65893L8.65485 12.1386V17.2284C8.1003 17.4691 7.50224 17.5933 6.89771 17.5935L6.89856 17.5926Z" fill="#383838" stroke="#383838" stroke-width="0.5"/>
</svg>
