<svg width="24" height="24" viewBox="0 0 24 24" fill="none" xmlns="http://www.w3.org/2000/svg">
<path d="M24 17.8933V22.6081C24 23.3081 23.4588 23.8889 22.7607 23.9383C22.1775 23.9795 21.7017 24 21.3333 24C9.5512 24 0 14.4488 0 2.66667C0 2.29828 0.0206 1.82249 0.0618 1.23933C0.11116 0.541173 0.69192 0 1.39181 0H6.1068C6.44904 0 6.73568 0.259227 6.77004 0.599733C6.80089 0.905427 6.82957 1.15085 6.85609 1.33603C7.1258 3.21963 7.67671 5.01248 8.46493 6.67071C8.59145 6.93687 8.50895 7.25545 8.26913 7.42675L5.3914 9.4824C7.14336 13.5748 10.4252 16.8567 14.5176 18.6087L16.5695 15.7359C16.7429 15.4932 17.0653 15.4097 17.3347 15.5376C18.9928 16.3252 20.7855 16.8755 22.6688 17.1445C22.8528 17.1709 23.0967 17.1993 23.4003 17.23C23.7408 17.2644 24 17.5511 24 17.8933Z" fill="#383838"/>
</svg>
