<svg width="24" height="24" viewBox="0 0 24 24" fill="none" xmlns="http://www.w3.org/2000/svg">
<g clip-path="url(#clip0_469_2047)">
<path d="M2 12.0003C2 11.1353 2.11 10.2973 2.316 9.4963C2.86847 9.52535 3.4182 9.40106 3.90444 9.13717C4.39068 8.87329 4.79448 8.48009 5.07121 8.00105C5.34793 7.522 5.48681 6.97577 5.47247 6.42273C5.45814 5.86968 5.29117 5.33137 4.99 4.8673C6.19894 3.67787 7.69079 2.8158 9.325 2.3623C9.57599 2.85578 9.95864 3.27017 10.4306 3.55961C10.9025 3.84906 11.4454 4.00226 11.999 4.00226C12.5526 4.00226 13.0955 3.84906 13.5674 3.55961C14.0394 3.27017 14.422 2.85578 14.673 2.3623C16.3072 2.8158 17.7991 3.67787 19.008 4.8673C18.7065 5.33146 18.5393 5.86997 18.5248 6.42327C18.5104 6.97657 18.6493 7.52307 18.9262 8.00232C19.2031 8.48156 19.6071 8.87487 20.0937 9.13872C20.5802 9.40257 21.1303 9.52667 21.683 9.4973C21.889 10.2973 21.999 11.1353 21.999 12.0003C21.999 12.8653 21.889 13.7033 21.683 14.5043C21.1305 14.4751 20.5806 14.5992 20.0942 14.863C19.6078 15.1268 19.2039 15.52 18.927 15.9991C18.6502 16.4782 18.5112 17.0245 18.5255 17.5776C18.5398 18.1308 18.7068 18.6692 19.008 19.1333C17.7991 20.3227 16.3072 21.1848 14.673 21.6383C14.422 21.1448 14.0394 20.7304 13.5674 20.441C13.0955 20.1516 12.5526 19.9984 11.999 19.9984C11.4454 19.9984 10.9025 20.1516 10.4306 20.441C9.95864 20.7304 9.57599 21.1448 9.325 21.6383C7.69079 21.1848 6.19894 20.3227 4.99 19.1333C5.29151 18.6692 5.45873 18.1306 5.47317 17.5773C5.48761 17.024 5.3487 16.4775 5.07181 15.9983C4.79492 15.519 4.39085 15.1257 3.90431 14.8619C3.41776 14.598 2.8677 14.4739 2.315 14.5033C2.11 13.7043 2 12.8663 2 12.0003ZM6.804 15.0003C7.434 16.0913 7.614 17.3463 7.368 18.5243C7.776 18.8143 8.21 19.0653 8.665 19.2743C9.58167 18.4531 10.7693 17.9994 12 18.0003C13.26 18.0003 14.438 18.4713 15.335 19.2743C15.79 19.0653 16.224 18.8143 16.632 18.5243C16.3794 17.3203 16.5803 16.0654 17.196 15.0003C17.8106 13.9347 18.797 13.1335 19.966 12.7503C20.0122 12.2514 20.0122 11.7492 19.966 11.2503C18.7966 10.8674 17.8099 10.0661 17.195 9.0003C16.5793 7.93523 16.3784 6.68034 16.631 5.4763C16.2231 5.18623 15.7889 4.93512 15.334 4.7263C14.4176 5.54724 13.2303 6.00091 12 6.0003C10.7693 6.00116 9.58167 5.54747 8.665 4.7263C8.21013 4.93513 7.77589 5.18623 7.368 5.4763C7.62056 6.68034 7.41972 7.93523 6.804 9.0003C6.18937 10.0659 5.20298 10.8672 4.034 11.2503C3.98775 11.7492 3.98775 12.2514 4.034 12.7503C5.20335 13.1332 6.18913 13.9345 6.804 15.0003ZM12 15.0003C11.2044 15.0003 10.4413 14.6842 9.87868 14.1216C9.31607 13.559 9 12.796 9 12.0003C9 11.2047 9.31607 10.4416 9.87868 9.87898C10.4413 9.31637 11.2044 9.0003 12 9.0003C12.7956 9.0003 13.5587 9.31637 14.1213 9.87898C14.6839 10.4416 15 11.2047 15 12.0003C15 12.796 14.6839 13.559 14.1213 14.1216C13.5587 14.6842 12.7956 15.0003 12 15.0003ZM12 13.0003C12.2652 13.0003 12.5196 12.8949 12.7071 12.7074C12.8946 12.5199 13 12.2655 13 12.0003C13 11.7351 12.8946 11.4807 12.7071 11.2932C12.5196 11.1057 12.2652 11.0003 12 11.0003C11.7348 11.0003 11.4804 11.1057 11.2929 11.2932C11.1054 11.4807 11 11.7351 11 12.0003C11 12.2655 11.1054 12.5199 11.2929 12.7074C11.4804 12.8949 11.7348 13.0003 12 13.0003Z" fill="#383838"/>
</g>
</svg>
