<svg width="20" height="23" viewBox="0 0 20 23" fill="none" xmlns="http://www.w3.org/2000/svg">
<path d="M18.167 6H15.627C15.462 4.62296 14.7985 3.35399 13.7618 2.43278C12.7251 1.51157 11.3869 1.00189 10 1C8.61312 1.00189 7.27493 1.51157 6.2382 2.43278C5.20147 3.35399 4.53796 4.62296 4.373 6H1.833C1.61207 6 1.4002 6.08776 1.24398 6.24398C1.08776 6.4002 1 6.61207 1 6.833V21.5C1 21.96 1.373 22.333 1.833 22.333H18.167C18.627 22.333 19 21.96 19 21.5V6.833C19 6.61207 18.9122 6.4002 18.756 6.24398C18.5998 6.08776 18.3879 6 18.167 6ZM10 2.667C10.9449 2.66819 11.859 3.00335 12.5807 3.61325C13.3024 4.22315 13.7853 5.06853 13.944 6H6.056C6.21474 5.06853 6.69763 4.22315 7.41933 3.61325C8.14104 3.00335 9.0551 2.66819 10 2.667ZM17.333 20.667H2.667V7.667H4.333V10.167C4.333 10.3881 4.42081 10.6001 4.57713 10.7564C4.73344 10.9127 4.94544 11.0005 5.1665 11.0005C5.38756 11.0005 5.59956 10.9127 5.75587 10.7564C5.91219 10.6001 6 10.3881 6 10.167V7.667H14V10.167C14 10.3881 14.0878 10.6001 14.2441 10.7564C14.4004 10.9127 14.6124 11.0005 14.8335 11.0005C15.0546 11.0005 15.2666 10.9127 15.4229 10.7564C15.5792 10.6001 15.667 10.3881 15.667 10.167V7.667H17.333V20.667Z" fill="#383838" stroke="#383838" stroke-width="0.5"/>
</svg>
