<svg xmlns="http://www.w3.org/2000/svg" width="24" height="15" fill="none"><path fill="#383838" stroke="#383838" d="M22.771 5.453a1.223 1.223 0 0 0-.402-.335 1.09 1.09 0 0 0-.49-.122h-.504v-.428c0-.769-.637-1.394-1.418-1.394h-.666v-.79c0-.372-.152-.734-.414-.995-.522-.519-1.426-.519-1.95 0a1.34 1.34 0 0 0-.301.448c-.072.171-.11.358-.112.547V6.09H7.486V2.384c0-.37-.151-.734-.414-.995-.523-.518-1.427-.518-1.95 0-.127.124-.23.276-.302.448-.071.171-.11.358-.112.547v.79h-.746c-.352 0-.683.133-.936.375a1.24 1.24 0 0 0-.292.42 1.38 1.38 0 0 0-.11.52v.507h-.499c-.338 0-.664.167-.896.46a1.651 1.651 0 0 0-.34 1.023v2.134c0 .384.12.748.341 1.025.231.292.557.46.895.46h.5v.505c0 .352.146.695.402.941.252.242.583.375.935.375h.746v.79c0 .371.151.734.414.994.262.26.608.402.975.402.368 0 .713-.143.975-.402.263-.26.414-.623.414-.995V9.004h9.028v3.704c0 .372.15.735.414.995.261.26.607.402.974.402.368 0 .714-.143.975-.402.263-.26.414-.623.414-.995v-.79h.666c.781 0 1.418-.625 1.418-1.393v-.428h.504c.336 0 .661-.167.892-.457.219-.276.34-.64.34-1.02V6.472c0-.382-.121-.743-.34-1.019ZM2.124 9.368a.444.444 0 0 1-.2-.054.5.5 0 0 1-.162-.143.909.909 0 0 1-.18-.558V6.48a.91.91 0 0 1 .18-.558.5.5 0 0 1 .162-.142.444.444 0 0 1 .2-.055h.5V9.37h-.5Zm1.837 1.822a.675.675 0 0 1-.465-.183.526.526 0 0 1-.129-.18.587.587 0 0 1-.049-.224V4.49a.56.56 0 0 1 .178-.405.678.678 0 0 1 .465-.183h.746v7.288h-.746Zm2.83 1.518c0 .175-.07.34-.197.465a.737.737 0 0 1-.995 0 .615.615 0 0 1-.144-.208.682.682 0 0 1-.053-.257V2.384a.685.685 0 0 1 .052-.256.617.617 0 0 1 .143-.209.712.712 0 0 1 .997 0c.127.125.197.29.197.465v10.324Zm.693-4.433V6.817h9.029v1.458H7.484Zm11.111 4.433a.65.65 0 0 1-.195.465.737.737 0 0 1-.996 0 .614.614 0 0 1-.143-.208.681.681 0 0 1-.054-.257V2.384c0-.174.07-.34.195-.465a.712.712 0 0 1 .997 0c.127.125.197.29.197.465v10.324Zm2.084-2.183c0 .367-.324.665-.723.665h-.666V3.902h.666c.399 0 .723.3.723.666v5.957Zm1.736-1.906a.906.906 0 0 1-.178.554.494.494 0 0 1-.16.141.44.44 0 0 1-.199.054h-.504V5.724h.504c.132 0 .259.07.36.196a.902.902 0 0 1 .177.553V8.62Z"/></svg>