<svg xmlns="http://www.w3.org/2000/svg" width="16" height="24" fill="none"><path stroke="#383838" stroke-linecap="round" stroke-miterlimit="10" stroke-width="2" d="M8 12v5.5m3-2.75H5m6.608-10.083H4.392C3.632 4.667 3 4.11 3 3.444V2.222C3 1.556 3.633 1 4.392 1h7.216C12.368 1 13 1.556 13 2.222v1.334c0 .555-.633 1.111-1.392 1.111Zm-7.646.118V7.15c0 .473-.27.947-.539 1.183L1.538 9.871c-.403.355-.538.71-.538 1.183v10.172C1 22.172 1.942 23 3.02 23h9.96c1.078 0 2.02-.828 2.02-1.774V11.172c0-.473-.27-.946-.539-1.183l-2.019-1.774c-.403-.355-.538-.71-.538-1.183V4.667H3.962v.118Z"/></svg>