<svg xmlns="http://www.w3.org/2000/svg" width="18" height="24" fill="none"><path fill="#383838" stroke="#383838" stroke-width=".5" d="M9.985 22.21v-3.564a5.737 5.737 0 0 0 7.487-5.454A5.75 5.75 0 0 0 15.9 9.251a4.738 4.738 0 0 0-1.972-4.665 4.714 4.714 0 0 0-7.572-2.68 4.713 4.713 0 0 0-1.644 2.68A4.738 4.738 0 0 0 2.74 9.25a5.748 5.748 0 0 0-1.571 3.942 5.737 5.737 0 0 0 7.487 5.454v3.566H.857v1.328h16.926v-1.328H9.986v-.001ZM6.9 17.594a4.406 4.406 0 0 1-4.402-4.4 4.414 4.414 0 0 1 1.419-3.236l.291-.269-.098-.384A3.4 3.4 0 0 1 5.656 5.56l.272-.163.045-.313A3.396 3.396 0 0 1 9.32 2.186a3.396 3.396 0 0 1 3.347 2.897l.046.313.271.163a3.402 3.402 0 0 1 1.547 3.746l-.097.383.291.27a4.413 4.413 0 0 1 1.418 3.234 4.404 4.404 0 0 1-6.158 4.035v-2.43l2.479-2.48-.94-.94-1.539 1.54V7.732h-1.33v2.526L7.116 8.72l-.94.939 2.48 2.48v5.09a4.417 4.417 0 0 1-1.757.364Z"/></svg>