<svg width="64" height="64" viewBox="0 0 64 64" fill="none" xmlns="http://www.w3.org/2000/svg">
<path d="M47.5383 56.9255V12.0854C47.5383 11.3276 47.3891 10.5774 47.0991 9.87729C46.8091 9.17722 46.3841 8.54107 45.8483 8.00525C45.3124 7.46944 44.6763 7.04441 43.9763 6.75443C43.2762 6.46445 42.5259 6.31522 41.7681 6.31522H21.4607C20.7014 6.31277 19.949 6.46009 19.2468 6.74897C18.5446 7.03786 17.9063 7.46261 17.3685 7.99866C16.8307 8.53472 16.404 9.17169 16.1128 9.87298C15.8217 10.5743 15.6719 11.3261 15.6719 12.0854V57" stroke="#0E5696" stroke-width="1.5" stroke-miterlimit="10"/>
<path d="M56.9572 56.9437H6.2724" stroke="#0E5696" stroke-width="1.5" stroke-miterlimit="10"/>
<path d="M31.6064 6.25977V56.9446" stroke="#0E5696" stroke-width="1.5" stroke-miterlimit="10"/>
</svg>
