<svg width="64" height="64" viewBox="0 0 64 64" fill="none" xmlns="http://www.w3.org/2000/svg">
<path d="M52.9996 7.36743V29.1914C52.9996 45.2122 40.2719 51.5671 31.8521 55.8927C23.4501 51.6205 10.7402 45.3012 10.7402 29.1914V7.36743H52.9996Z" stroke="#0E5696" stroke-width="1.5" stroke-miterlimit="10"/>
<path d="M37.1745 19.2588H26.5651C25.4149 19.2588 24.4824 20.1912 24.4824 21.3415V31.9507C24.4824 33.101 25.4149 34.0335 26.5651 34.0335H37.1745C38.3247 34.0335 39.2572 33.101 39.2572 31.9507V21.3415C39.2572 20.1912 38.3247 19.2588 37.1745 19.2588Z" stroke="#0E5696" stroke-width="1.5" stroke-miterlimit="10"/>
<path d="M24.4825 24.6173H20.4951V13.9011H10.7402" stroke="#0E5696" stroke-width="1.5" stroke-miterlimit="10"/>
<path d="M24.4825 29.8151H20.4951V40.5312H13.3391" stroke="#0E5696" stroke-width="1.5" stroke-miterlimit="10"/>
<path d="M39.2568 24.6171H43.2442V13.9009H52.9991" stroke="#0E5696" stroke-width="1.5" stroke-miterlimit="10"/>
<path d="M39.2568 29.8149H43.2442V40.5311H50.4002" stroke="#0E5696" stroke-width="1.5" stroke-miterlimit="10"/>
<path d="M31.8701 34.0341V55.858" stroke="#0E5696" stroke-width="1.5" stroke-miterlimit="10"/>
<path d="M31.8701 19.2584V7.36743" stroke="#0E5696" stroke-width="1.5" stroke-miterlimit="10"/>
</svg>
