<svg xmlns="http://www.w3.org/2000/svg" width="18" height="23" fill="none"><g stroke="#383838" stroke-linecap="round" stroke-linejoin="round" stroke-miterlimit="10" stroke-width="2" clip-path="url(#a)"><path d="M17 22H1V10.934c0-4.276 3.512-7.67 7.935-7.67s7.935 3.394 7.935 7.67V22H17Z"/><path d="M6.203 7.413h5.724m-7.155 9.306h8.456M6.463 3.64v-.377C6.463 2.006 7.503 1 8.805 1h.39c1.3 0 2.342 1.006 2.342 2.263v.503M13.227 22H4.644v-7.545c0-1.006.78-1.76 1.82-1.76h4.944c1.04 0 1.82.754 1.82 1.76V22Z"/></g><defs><clipPath id="a"><path fill="#fff" d="M0 0h18v23H0z"/></clipPath></defs></svg>