<svg xmlns="http://www.w3.org/2000/svg" width="24" height="24" fill="none"><path fill="#383838" d="M24 17.893v4.715c0 .7-.541 1.28-1.24 1.33a21.07 21.07 0 0 1-1.427.062C9.551 24 0 14.449 0 2.667c0-.369.02-.845.062-1.428C.112.541.692 0 1.392 0h4.715c.342 0 .629.26.663.6.03.305.06.55.086.736.27 1.884.82 3.676 1.609 5.335a.608.608 0 0 1-.196.756L5.391 9.482a17.396 17.396 0 0 0 9.127 9.127l2.052-2.873a.616.616 0 0 1 .765-.198 18.527 18.527 0 0 0 5.334 1.607c.184.026.428.054.731.085.34.034.6.321.6.663Z"/></svg>