<svg xmlns="http://www.w3.org/2000/svg" width="70" height="91" fill="none"><path fill="#383838" d="M59.398 57.15h-.289v16.11h-4.736V43.124h4.593l6.012 17.221h.27V43.124H70V73.26h-4.594l-6.008-16.11ZM38.413 68.955h-4.227L29.55 43.124h4.786l2.056 13.704.096.957h.383l.143-.957 2.202-13.704h3.733l2.2 13.704.142.957h.385l.096-.957 2.056-13.704h4.787l-4.64 25.831H43.75l-2.287-11.928-.285-.69h-.193l-.286.69-2.286 11.928ZM27.936 45.82a6.88 6.88 0 0 0-.837-1.175 5.135 5.135 0 0 0-1.22-1.016 6.827 6.827 0 0 0-1.7-.729 8.396 8.396 0 0 0-2.272-.277 8.652 8.652 0 0 0-2.295.277 6.736 6.736 0 0 0-1.724.729c-.465.28-.87.623-1.196 1.016a7.8 7.8 0 0 0-.814 1.175 7.243 7.243 0 0 0-.86 3.158v35.67a7.32 7.32 0 0 0 .86 3.19c.228.405.5.792.814 1.155a5.3 5.3 0 0 0 1.196 1.017 5.9 5.9 0 0 0 1.724.73 9.284 9.284 0 0 0 2.295.26 8.955 8.955 0 0 0 2.272-.26 5.952 5.952 0 0 0 2.92-1.747c.327-.36.607-.746.837-1.154a7.367 7.367 0 0 0 .875-3.19v-35.68a7.288 7.288 0 0 0-.875-3.159m-4.29 38.839a2.7 2.7 0 0 1-.193 1.076c-.09.283-.262.544-.502.758a1.776 1.776 0 0 1-1.03.318 1.78 1.78 0 0 1-1.029-.318 1.715 1.715 0 0 1-.502-.758 2.676 2.676 0 0 1-.192-1.076v-35.68a2.859 2.859 0 0 1 .192-1.077c.103-.27.274-.518.502-.728.28-.217.648-.338 1.03-.338s.75.12 1.03.338c.227.21.398.459.5.728.135.348.2.712.193 1.077v35.68ZM55.081 4.375h13.076l-.75 4.305H60.25v8.595h4.488v4.322H60.25v12.914h7.907L67.4 38.82H55.08V4.375ZM29.715 0h-6.317l-6.709 38.819h5.034l1.75-8.61h6.093l1.389 8.61h5.16L29.714 0Zm-5.778 25.902 2.488-17.929h.292l2.394 17.929h-5.174Zm-8.245 8.61-.767 4.307H2.599V8.68h5.168v25.832h7.925Zm32.71 4.307h5.026l-5.42-17.186 3.982-8.648H47l-3.775 8.612h-.18v-8.612h-5.17v25.834h5.17v-8.612l1.434-3.137h.245l3.678 11.749ZM14.19 43.124H0v4.428h5.44v30.01h5.168v-30.01h2.826l.756-4.428Z"/></svg>