<svg xmlns="http://www.w3.org/2000/svg" width="64" height="64" fill="none"><g clip-path="url(#a)"><mask id="b" width="64" height="64" x="0" y="0" maskUnits="userSpaceOnUse" style="mask-type:luminance"><path fill="#fff" d="M0 0h64v64H0V0Z"/></mask><g stroke="#005E9B" stroke-linecap="round" stroke-linejoin="round" stroke-miterlimit="10" mask="url(#b)"><path stroke-width="1.5" d="M33.875 6.616V2.813a1.875 1.875 0 0 0-3.75 0v3.803m0 29.832v26.614h3.75V32.436"/><path stroke-width="1.5" d="M16.469 29.188a3.75 3.75 0 0 1-3.75 3.75H4.687a3.75 3.75 0 0 1-3.75-3.75v-.625c4.521-12.817 16.72-22 31.063-22s26.542 9.183 31.062 22v.625a3.75 3.75 0 0 1-3.75 3.75h-8.03a3.75 3.75 0 0 1-3.75-3.75"/><path stroke-width="1.25" d="M.938 28.563h62.124"/><path stroke-width="1.5" d="M32 6.563v22.624m0-22.624c7.171 0 13.27 9.183 15.531 22v.625a3.75 3.75 0 0 1-3.75 3.75H35.75a3.75 3.75 0 0 1-3.75-3.75m0-22.625c-7.171 0-13.271 9.183-15.531 22v.625a3.75 3.75 0 0 0 3.75 3.75h8.031a3.75 3.75 0 0 0 3.75-3.75"/></g></g><defs><clipPath id="a"><path fill="#fff" d="M0 0h64v64H0z"/></clipPath></defs></svg>