<svg xmlns="http://www.w3.org/2000/svg" width="64" height="64" fill="none"><path stroke="#005E9B" stroke-linecap="round" stroke-linejoin="round" stroke-miterlimit="10" stroke-width="1.5" d="M58.774 23.63H5.226a4.289 4.289 0 0 0-4.288 4.288v14.201h62.124V27.918a4.289 4.289 0 0 0-4.288-4.289Z"/><path stroke="#005E9B" stroke-linecap="round" stroke-linejoin="round" stroke-miterlimit="10" stroke-width="1.5" d="M49.508 54.814H5.226a4.289 4.289 0 0 1-4.288-4.289V42.12h62.124v8.406a4.289 4.289 0 0 1-4.288 4.289H53.9M6.712 48.467H21.43m32.47 0h3.997M29.015 27.453h19.488m-32.397 0h8.53m25.305-3.824H14.668l2.21 5.878a2.732 2.732 0 0 0 2.557 1.77h25.74a2.732 2.732 0 0 0 2.556-1.77l2.21-5.878Zm5.958 9.714a1.999 1.999 0 1 1 0 3.997 1.999 1.999 0 0 1 0-3.997ZM26.79 19.131V9.186m5.275 9.945V9.186m-10.26 9.945v-2.047c0-2.848-.953-5.62-2.718-7.898m18.124 9.945V9.186m4.984 9.945v-2.047c0-2.848.954-5.62 2.719-7.898"/></svg>