<svg xmlns="http://www.w3.org/2000/svg" width="64" height="64" fill="none"><mask id="a" width="64" height="64" x="0" y="0" maskUnits="userSpaceOnUse" style="mask-type:luminance"><path fill="#fff" d="M0 0h64v64H0V0Z"/></mask><g stroke="#005E9B" stroke-linecap="round" stroke-linejoin="round" stroke-miterlimit="10" stroke-width="1.5" mask="url(#a)"><path d="M41.75 53v3.553c0 2.993-2.395 4.89-4.875 4.946-1.495.034-3.02-.6-4.073-2.066a4.937 4.937 0 0 1-.927-2.88V7.23c0-.64-.146-1.271-.426-1.847l-.087-.177C29.116.599 22.125 2.21 22.125 7.38v36.745c0 4.373-5.313 6.533-8.366 3.402a4.875 4.875 0 0 1-1.384-3.403V21.823c0-4.414-5.35-6.61-8.45-3.47a4.937 4.937 0 0 0-1.425 3.47V40.25m59-14v17.805a4.93 4.93 0 0 1-.569 2.3c-.96 1.822-2.637 2.644-4.306 2.645-2.51.002-5-1.85-5-4.945V21.82c0-3.891-4.29-6.253-7.578-4.173a4.936 4.936 0 0 0-2.297 4.173V40.5"/></g></svg>