<svg xmlns="http://www.w3.org/2000/svg" width="64" height="64" fill="none"><g stroke="#0E5696" stroke-linecap="round" stroke-linejoin="round" stroke-miterlimit="10" stroke-width="1.5" clip-path="url(#a)"><path d="M8.834 9.439V21.5c0 1.197.97 2.165 2.165 2.165h18.4a2.164 2.164 0 0 0 2.163-2.165V3.102A2.164 2.164 0 0 0 29.398.938h-18.4a2.165 2.165 0 0 0-2.164 2.165v1.96m-2.72 45.725v-3.67m0 12.913v-4.868m3.283 3.747V45.996m9.344 9.72V42.805m3.283 11.791V41.682m9.344 9.722V38.49m3.283 11.793V37.369M58.54 47.91h2.755c.976 0 1.767.791 1.767 1.768v11.617c0 .976-.791 1.767-1.767 1.767H1.673a.736.736 0 0 1-.237-1.432l39.208-13.395a6.075 6.075 0 0 1 1.96-.325h11.56M2.497 46.62a1.641 1.641 0 0 1 1.023-2.084l32.297-11.033a1.641 1.641 0 1 1 1.061 3.106L4.58 47.642a1.641 1.641 0 0 1-2.083-1.022Z"/><path d="M17.388 7.824a1.865 1.865 0 1 0 0-3.73 1.865 1.865 0 0 0 0 3.73Zm4.938 7.749a4.937 4.937 0 1 1-4.937-4.937"/><path d="M17.389 7.824v7.748h5.83l3.211 3.212 1.514-1.513m-10.555-5.59h4.937M45.187 32h13.864m-3.883 4.01 4.01-4.01-4.01-4.01"/></g><defs><clipPath id="a"><path fill="#fff" d="M0 0h64v64H0z"/></clipPath></defs></svg>