<svg xmlns="http://www.w3.org/2000/svg" width="64" height="64" fill="none"><path stroke="#0E5696" stroke-miterlimit="10" stroke-width="1.5" d="M25.236 26.802c3.89-1.102 5.779-6.476 4.205-11.94-1.574-5.464-6.026-8.994-9.894-7.915-3.867 1.08-5.779 6.499-4.205 11.963"/><path stroke="#0E5696" stroke-miterlimit="10" stroke-width="1.2" d="M33.645 14.863c1.574-5.509 5.982-8.994 9.85-7.96"/><path stroke="#0E5696" stroke-miterlimit="10" stroke-width="1.5" d="M43.494 6.903c3.867 1.102 5.71 6.453 4.137 11.962-1.574 5.51-5.981 8.994-9.849 7.96M6.214 33.57c-2.249-4.81-1.237-9.96 2.136-11.512 3.373-1.552 7.892 1.102 10.096 5.914"/><path stroke="#0E5696" stroke-miterlimit="10" stroke-width="1.2" d="M18.446 27.972c2.248 4.812 1.236 9.96-2.136 11.512m29.276-12.48c2.248-4.812 6.746-7.465 10.096-5.913"/><path stroke="#0E5696" stroke-miterlimit="10" stroke-width="1.5" d="M55.68 21.091c3.373 1.552 4.34 6.746 2.137 11.49-2.204 4.745-6.746 7.465-10.096 5.914M20.02 40.428s-8.635 15.336-.945 17.247c7.69 1.911 8.612-2.856 14.39-2.856 5.78 0 6.746 4.834 12.502 2.856 5.757-1.979 6.746-5.78-.944-17.247-7.69-11.467-19.225-8.634-25.004 0Z"/></svg>