<svg xmlns="http://www.w3.org/2000/svg" width="64" height="64" fill="none"><path stroke="#0E5696" stroke-miterlimit="10" stroke-width="1.065" d="M56 51.859c-5.193 4.932-14.048 8.164-24.1 8.164-10.05 0-18.906-3.232-24.1-8.164 3.083-8.78 12.704-15.17 24.1-15.17v.915a2.336 2.336 0 0 0 2.336 2.336h5.903a2.297 2.297 0 0 0 2.111-1.364A22.773 22.773 0 0 1 56 51.859Z"/><path stroke="#0E5696" stroke-miterlimit="10" stroke-width="1.5" d="M56 51.859c-5.193 4.932-14.048 8.164-24.1 8.164-10.05 0-18.906-3.232-24.1-8.164 3.083-8.78 12.704-15.17 24.1-15.17v.915a2.336 2.336 0 0 0 2.336 2.336h5.903a2.297 2.297 0 0 0 2.111-1.364A22.773 22.773 0 0 1 56 51.859Zm-40.987-28.34c0-10.78 7.865-19.542 17.542-19.542 9.677 0 17.542 8.762 17.542 19.542"/><path stroke="#0E5696" stroke-miterlimit="10" stroke-width="1.5" d="M43.745 23.5a14.235 14.235 0 0 1-3.848 9.939h-5.605a2.335 2.335 0 0 0-2.335 2.335v.878C26.072 36.26 21.4 30.524 21.4 23.574c0-6.95 5.026-13.077 11.21-13.077 6.183 0 11.134 5.736 11.134 13.003Zm-28.117-5.194h-2.56a2.653 2.653 0 0 0-2.652 2.671v4.353a2.652 2.652 0 0 0 2.653 2.672h2.56m33.851-9.696h2.559a2.672 2.672 0 0 1 2.671 2.671v4.353a2.671 2.671 0 0 1-2.671 2.672h-2.56v4.128a4.559 4.559 0 0 1-4.558 4.559h-2.447"/><path stroke="#0E5696" stroke-miterlimit="10" stroke-width="1.2" d="M42.475 35.774v1.868c.002.337-.075.67-.224.971a2.298 2.298 0 0 1-2.11 1.364h-5.904a2.335 2.335 0 0 1-2.336-2.335v-1.868a2.335 2.335 0 0 1 2.336-2.336h5.903a2.335 2.335 0 0 1 2.335 2.336Z"/></svg>