<svg xmlns="http://www.w3.org/2000/svg" width="62" height="62" fill="none"><path stroke="#005E9B" stroke-linecap="round" stroke-linejoin="round" stroke-miterlimit="10" stroke-width="1.5" d="M5 51.664v3.485C5 56.17 5.829 57 6.851 57h2.575a1.851 1.851 0 0 0 1.852-1.851v-3.485m-6.278 0h6.278m-6.278 0V36.579a.904.904 0 0 1 .904-.904h4.47a.904.904 0 0 1 .904.904v15.085M57 15.027v-4.691h-6.278v15.085a.904.904 0 0 0 .904.904h4.47a.904.904 0 0 0 .904-.904v-6.628M10.01 35.675H6.245v-1.256a1.883 1.883 0 0 1 3.767 0v1.256ZM55.15 5h-2.575a1.851 1.851 0 0 0-1.852 1.851v3.485H57V6.851A1.851 1.851 0 0 0 55.15 5Zm.584 21.325h-3.767v1.256a1.883 1.883 0 0 0 3.767 0v-1.256Z"/><path stroke="#005E9B" stroke-linecap="round" stroke-linejoin="round" stroke-miterlimit="10" stroke-width="1.5" d="M13.96 14.576a11.373 11.373 0 0 1 5.592-1.46h.023C25.885 13.116 31 18.23 31 24.54v11.178c0 6.31 5.115 11.425 11.425 11.425 6.31 0 11.425-5.115 11.425-11.425v-6.236M8.127 32.536V24.54c0-2.955 1.123-5.649 2.964-7.677"/></svg>