<svg xmlns="http://www.w3.org/2000/svg" width="64" height="64" fill="none"><path stroke="#0E5696" stroke-miterlimit="10" stroke-width="1.5" d="M43.87 31.102c0 3.469-5.277 6.268-11.793 6.268-6.516 0-11.817-2.8-11.817-6.268s5.277-6.292 11.817-6.292 11.793 2.824 11.793 6.292Zm-36.74-.619v18.135M57 30.483v18.135m-36.145-5.476v18.135"/><path stroke="#0E5696" stroke-miterlimit="10" stroke-width="1.5" d="M41.715 61.252V43.315a44.201 44.201 0 0 1-9.638 1.04c-13.774 0-24.947-5.945-24.947-13.253 0-7.309 11.173-13.254 24.948-13.254C45.852 17.848 57 23.768 57 31.102M31.111 2.463v10.133M14.662 15.47 7.849 8.434m39.936 7.036 6.813-7.036"/></svg>