<svg xmlns="http://www.w3.org/2000/svg" width="64" height="64" fill="none"><mask id="a" width="64" height="64" x="0" y="0" maskUnits="userSpaceOnUse" style="mask-type:luminance"><path fill="#fff" d="M0 0h64v64H0V0Z"/></mask><g mask="url(#a)"><path stroke="#005E9B" stroke-linecap="round" stroke-linejoin="round" stroke-miterlimit="10" stroke-width="1.875" d="M32 .938v4.141"/></g><path stroke="#005E9B" stroke-linecap="round" stroke-linejoin="round" stroke-miterlimit="10" stroke-width="1.875" d="m13.696 8.52 2.929 2.928M6.115 26.823h4.142m3.439 18.304 2.929-2.929m33.678 2.929-2.928-2.929m10.511-15.375h-4.142M50.304 8.52l-2.929 2.928"/><mask id="b" width="64" height="64" x="0" y="0" maskUnits="userSpaceOnUse" style="mask-type:luminance"><path fill="#fff" d="M0 0h64v64H0V0Z"/></mask><g stroke="#005E9B" stroke-linecap="round" stroke-linejoin="round" stroke-miterlimit="10" stroke-width="1.5" mask="url(#b)"><path d="M25.788 59.956a3.106 3.106 0 0 0 3.106 3.106h6.213a3.106 3.106 0 0 0 3.106-3.106m-13.46-1.036h14.496V46.496H24.753v12.426Zm-6.445-43.158a17.528 17.528 0 0 0-3.91 11.061c0 7.138 4.249 13.283 10.355 16.045v3.628h14.495v-3.628c6.106-2.762 10.354-8.907 10.354-16.045 0-9.721-7.88-17.602-17.602-17.602-4.18 0-8.02 1.457-11.038 3.891m2.755 33.384h16.566m-15.53 3.106h14.495m-14.495 6.213h14.495m-14.495-3.106h14.495"/><path d="M27.859 36.142a2.07 2.07 0 1 1 2.07-2.07v12.424m6.213-10.354a2.07 2.07 0 1 0-2.07-2.07v12.424m-6.214-10.354h8.284"/></g></svg>