<svg xmlns="http://www.w3.org/2000/svg" width="64" height="64" fill="none"><g clip-path="url(#a)"><mask id="b" width="64" height="64" x="0" y="0" maskUnits="userSpaceOnUse" style="mask-type:luminance"><path fill="#fff" d="M0 0h64v64H0V0Z"/></mask><g stroke="#005E9B" stroke-linejoin="round" mask="url(#b)"><path stroke-linecap="round" stroke-miterlimit="22.926" stroke-width="1.5" d="M62.75 45.125V58.25H1.25V45.125c2.476 0 2.648-1.875 5.125-1.875 2.476 0 2.648 1.875 5.125 1.875 2.476 0 2.648-1.875 5.125-1.875 2.476 0 2.648 1.875 5.125 1.875 2.476 0 2.648-1.875 5.125-1.875 2.476 0 2.648 1.875 5.125 1.875 2.476 0 2.648-1.875 5.124-1.875 2.477 0 2.65 1.875 5.125 1.875 2.477 0 2.65-1.875 5.126-1.875 2.476 0 2.648 1.875 5.125 1.875 2.476 0 2.648-1.875 5.125-1.875 2.476 0 2.648 1.875 5.125 1.875Z"/><path stroke-linecap="round" stroke-miterlimit="22.926" stroke-width="1.5" d="M37.624 50.781c1.985.242 2.303 1.845 4.584 1.845 2.466 0 2.637-1.875 5.104-1.875 2.466 0 2.638 1.875 5.104 1.875s2.638-1.875 5.104-1.875 2.638 1.875 5.104 1.875m-61.25 0c2.467 0 2.638-1.875 5.105-1.875 2.466 0 2.637 1.875 5.104 1.875 2.466 0 2.637-1.875 5.104-1.875 2.466 0 2.638 1.875 5.104 1.875 2.28 0 2.6-1.603 4.583-1.845"/><path stroke-linecap="round" stroke-miterlimit="2.613" stroke-width="1.5" d="M43.667 36.202a2.49 2.49 0 0 1-3.828 3.184l-5.668-6.798-8.398 2.263a2.497 2.497 0 0 1-2.986-1.546l-6.114-14.069a2.493 2.493 0 0 1 2.406-3.486h17.21a2.49 2.49 0 0 1 0 4.98h-10.53l1.36 6.864 7.294-.242c1.218-.008 2.067.227 2.997 1.346l6.257 7.504Z"/><path stroke-linecap="round" stroke-miterlimit="2.613" stroke-width="1.5" d="M21.58 15.75c2.753 0 5-2.246 5-5s-2.247-5-5-5a5.01 5.01 0 0 0-5 5c0 2.754 2.245 5 5 5Zm21.81 19.927c3.174-1.4 6.068-1.31 6.95.22 1.036 1.793-1.033 4.926-4.62 6.997-1.786 1.03-3.706 1.649-5.307 1.708m5.819-26.362H62.75M37.248 43.193c-.505-1.185.175-2.907 1.804-4.565"/><path stroke-miterlimit="2.613" stroke-width="1.5" d="m19.754 26.48-3.04 5.32a2.498 2.498 0 0 1-4.336-2.48l4.89-8.56"/><path stroke-linecap="round" stroke-miterlimit="2.613" stroke-width="1.5" d="M27.181 17v2.481"/><path stroke-linecap="round" stroke-miterlimit="2.613" stroke-width="1.2" d="m27.119 27.594-5.644 2.452"/><path stroke-linecap="round" stroke-miterlimit="2.613" stroke-width="1.5" d="m34.172 32.588-.168-5.034m-2.006 25.072H32m5.529-36.686v-2.7l8.703 5-8.703 5v-2.683"/></g></g><defs><clipPath id="a"><path fill="#fff" d="M0 0h64v64H0z"/></clipPath></defs></svg>