<svg width="61" height="60" viewBox="0 0 61 60" fill="none" xmlns="http://www.w3.org/2000/svg">
<circle cx="30.7935" cy="30" r="30" fill="#005E9B"/>
<g clip-path="url(#clip0_1002_1273)">
<g clip-path="url(#clip1_1002_1273)">
<path d="M41.5651 28.0929C41.4534 27.9505 41.3162 27.8362 41.1626 27.7575C41.009 27.6787 40.8423 27.6373 40.6735 27.6359H40.1686V27.2079C40.1686 26.4389 39.5322 25.8139 38.7508 25.8139H38.0842V25.0239C38.0842 24.6519 37.9331 24.2899 37.6708 24.0289C37.1482 23.5099 36.2442 23.5099 35.7215 24.0289C35.5938 24.1523 35.4908 24.3048 35.4193 24.4763C35.3479 24.6479 35.3097 24.8345 35.3073 25.0239V28.7299H26.2797V25.0239C26.2797 24.6529 26.1286 24.2899 25.8655 24.0289C25.3428 23.5109 24.4388 23.5109 23.9162 24.0289C23.7884 24.1523 23.6854 24.3048 23.614 24.4763C23.5426 24.6479 23.5044 24.8345 23.502 25.0239V25.8139H22.7553C22.4042 25.8139 22.0726 25.9469 21.8202 26.1889C21.697 26.3038 21.5973 26.4473 21.528 26.6095C21.4586 26.7717 21.4213 26.9489 21.4184 27.1289V27.6359H20.9188C20.5811 27.6359 20.2548 27.8029 20.0228 28.0949C19.8015 28.3777 19.6803 28.7421 19.6824 29.1189V31.2529C19.6824 31.6369 19.8033 32.0009 20.0237 32.2779C20.2548 32.5699 20.5811 32.7369 20.9188 32.7369H21.4184V33.2429C21.4184 33.5949 21.5651 33.9379 21.8211 34.1839C22.0726 34.4259 22.4042 34.5589 22.7553 34.5589H23.502V35.3489C23.502 35.7199 23.6531 36.0829 23.9153 36.3429C24.1775 36.6029 24.5233 36.7449 24.8904 36.7449C25.2584 36.7449 25.6042 36.6019 25.8655 36.3429C26.1286 36.0829 26.2797 35.7199 26.2797 35.3479V31.6439H35.3073V35.3479C35.3073 35.7199 35.4584 36.0829 35.7215 36.3429C35.9828 36.6029 36.3286 36.7449 36.6957 36.7449C37.0637 36.7449 37.4095 36.6019 37.6708 36.3429C37.934 36.0829 38.0851 35.7199 38.0851 35.3479V34.5579H38.7508C39.5322 34.5579 40.1686 33.9329 40.1686 33.1649V32.7369H40.6726C41.0086 32.7369 41.334 32.5699 41.5651 32.2799C41.7837 32.0039 41.9046 31.6399 41.9046 31.2599V29.1119C41.9046 28.7299 41.7837 28.3689 41.5651 28.0929ZM20.918 32.0079C20.8487 32.0059 20.7806 31.9873 20.7182 31.9533C20.6558 31.9194 20.6005 31.8708 20.5562 31.8109C20.4379 31.6557 20.3737 31.4574 20.3757 31.2529V29.1199C20.3757 28.9099 20.4415 28.7059 20.5562 28.5619C20.6005 28.502 20.6558 28.4534 20.7182 28.4195C20.7806 28.3855 20.8487 28.3669 20.918 28.3649H21.4175V32.0089H20.918V32.0079ZM22.7544 33.8299C22.5852 33.8319 22.4207 33.7672 22.2895 33.6469C22.2354 33.5983 22.1915 33.5369 22.1608 33.4671C22.1301 33.3973 22.1133 33.3208 22.1117 33.2429V27.1299C22.1117 26.9789 22.1748 26.8349 22.2895 26.7249C22.4208 26.6048 22.5852 26.5401 22.7544 26.5419H23.5011V33.8299H22.7544ZM25.5846 35.3479C25.5846 35.5229 25.5144 35.6879 25.3882 35.8129C25.1277 36.0709 24.6522 36.0709 24.3926 35.8129C24.3319 35.7559 24.2829 35.6849 24.2488 35.6046C24.2148 35.5244 24.1965 35.4368 24.1953 35.3479V25.0239C24.1964 24.9352 24.2144 24.8477 24.2482 24.7675C24.2819 24.6873 24.3306 24.6161 24.3908 24.5589C24.53 24.4261 24.707 24.3541 24.8895 24.3559C25.0762 24.3559 25.2575 24.4299 25.3873 24.5589C25.5144 24.6839 25.5846 24.8489 25.5846 25.0239V35.3479ZM26.278 30.9149V29.4569H35.3064V30.9149H26.2797H26.278ZM37.3891 35.3479C37.3891 35.5229 37.3197 35.6879 37.1935 35.8129C36.9331 36.0709 36.4575 36.0709 36.198 35.8129C36.1373 35.7559 36.0882 35.6849 36.0542 35.6046C36.0201 35.5244 36.0018 35.4368 36.0006 35.3479V25.0239C36.0006 24.8499 36.0708 24.6839 36.1962 24.5589C36.3354 24.4261 36.5124 24.3541 36.6948 24.3559C36.8815 24.3559 37.0628 24.4299 37.1926 24.5589C37.3197 24.6839 37.39 24.8489 37.39 25.0239L37.3891 35.3479ZM39.4726 33.1649C39.4726 33.5319 39.1482 33.8299 38.75 33.8299H38.0833V26.5419H38.75C39.1482 26.5419 39.4726 26.8409 39.4726 27.2079V33.1649ZM41.2086 31.2589C41.2107 31.4617 41.1476 31.6584 41.0308 31.8129C40.9868 31.8723 40.932 31.9204 40.87 31.9541C40.8081 31.9877 40.7405 32.0061 40.6717 32.0079H40.1677V28.3639H40.6717C40.8033 28.3639 40.9304 28.4339 41.0308 28.5599C41.1437 28.7019 41.2086 28.9039 41.2086 29.1129V31.2589Z" fill="white" stroke="white"/>
</g>
</g>
<defs>
<clipPath id="clip0_1002_1273">
<rect width="24" height="24" fill="white" transform="translate(18.7935 18.6396)"/>
</clipPath>
<clipPath id="clip1_1002_1273">
<rect width="24" height="15" fill="white" transform="translate(18.7935 22.6396)"/>
</clipPath>
</defs>
</svg>
