<svg width="61" height="60" viewBox="0 0 61 60" fill="none" xmlns="http://www.w3.org/2000/svg">
<circle cx="30.7935" cy="30" r="30" fill="#005E9B"/>
<g clip-path="url(#clip0_1002_1276)">
<path d="M30.7935 30V35.5M33.7935 32.75H27.7935M34.4015 22.667H27.1855C26.4255 22.667 25.7935 22.11 25.7935 21.444V20.222C25.7935 19.556 26.4265 19 27.1855 19H34.4015C35.1615 19 35.7935 19.556 35.7935 20.222V21.556C35.7935 22.111 35.1605 22.667 34.4015 22.667ZM26.7555 22.785V25.15C26.7555 25.623 26.4855 26.097 26.2165 26.333L24.3315 27.871C23.9285 28.226 23.7935 28.581 23.7935 29.054V39.226C23.7935 40.172 24.7355 41 25.8135 41H35.7735C36.8515 41 37.7935 40.172 37.7935 39.226V29.172C37.7935 28.699 37.5235 28.226 37.2545 27.989L35.2355 26.215C34.8325 25.86 34.6975 25.505 34.6975 25.032V22.667H26.7555V22.785Z" stroke="white" stroke-width="2" stroke-miterlimit="10" stroke-linecap="round"/>
</g>
<defs>
<clipPath id="clip0_1002_1276">
<rect width="16" height="24" fill="white" transform="translate(22.7935 18)"/>
</clipPath>
</defs>
</svg>
