<svg width="60" height="60" viewBox="0 0 60 60" fill="none" xmlns="http://www.w3.org/2000/svg">
<circle cx="30" cy="30" r="30" fill="#005E9B"/>
<g clip-path="url(#clip0_1002_1274)">
<path d="M29.9849 40.2112V36.6463C30.5528 36.8289 31.1456 36.922 31.742 36.9223C33.2612 36.9205 34.7176 36.3162 35.7918 35.242C36.8659 34.1678 37.4702 32.7115 37.472 31.1923C37.472 29.7266 36.9029 28.3106 35.9 27.2512C35.9435 26.9917 35.9652 26.7291 35.9652 26.466C35.963 25.7031 35.7766 24.9521 35.4219 24.2767C35.0671 23.6012 34.5546 23.0215 33.9277 22.5866C33.7024 21.5315 33.1219 20.5857 32.2833 19.907C31.4447 19.2282 30.3986 18.8577 29.3197 18.8572C28.2408 18.8574 27.1946 19.2278 26.3559 19.9066C25.5172 20.5854 24.9368 21.5314 24.7117 22.5866C24.0849 23.0215 23.5724 23.6012 23.2176 24.2767C22.8629 24.9521 22.6765 25.7031 22.6743 26.466C22.6743 26.7292 22.6966 26.9923 22.7395 27.2503C21.7321 28.3158 21.1701 29.726 21.1683 31.1923C21.1701 32.7115 21.7744 34.1678 22.8486 35.242C23.9228 36.3162 25.3792 36.9205 26.8983 36.9223C27.4957 36.9223 28.0897 36.828 28.6555 36.6463V40.212H20.8572V41.5406H37.7823V40.212H29.9857L29.9849 40.2112ZM26.8983 35.5929C25.7315 35.5918 24.6128 35.1278 23.7876 34.3028C22.9624 33.4778 22.4983 32.3592 22.4969 31.1923C22.4979 30.5845 22.6244 29.9835 22.8685 29.4268C23.1126 28.8702 23.469 28.3699 23.9155 27.9575L24.2069 27.6883L24.1083 27.3043C24.0387 27.0303 24.0036 26.7487 24.0037 26.466C24.0037 25.2815 24.6363 24.1672 25.6555 23.5595L25.928 23.3966L25.9726 23.0829C26.0919 22.2795 26.4952 21.5455 27.1093 21.014C27.7233 20.4825 28.5076 20.1886 29.3197 20.1857C30.1319 20.1886 30.9162 20.4825 31.5302 21.014C32.1443 21.5455 32.5476 22.2795 32.6669 23.0829L32.7123 23.3966L32.984 23.5595C33.4862 23.8606 33.9021 24.2864 34.1914 24.7954C34.4808 25.3045 34.6339 25.8796 34.6357 26.4652C34.6357 26.7497 34.6015 27.0317 34.5312 27.3052L34.4335 27.6883L34.7249 27.9575C35.1712 28.37 35.5274 28.8703 35.7714 29.4269C36.0153 29.9836 36.1417 30.5846 36.1426 31.1923C36.1415 31.9223 35.9589 32.6406 35.6114 33.2826C35.2639 33.9246 34.7624 34.4702 34.1518 34.8703C33.5412 35.2704 32.8408 35.5126 32.1135 35.575C31.3861 35.6374 30.6547 35.518 29.9849 35.2278V32.7969L32.4637 30.3172L31.5243 29.3777L29.9849 30.9172V25.7323H28.6555V28.2583L27.1143 26.7197L26.1749 27.6592L28.6546 30.1389V35.2286C28.1001 35.4693 27.502 35.5936 26.8975 35.5937L26.8983 35.5929Z" fill="white" stroke="white" stroke-width="0.5"/>
</g>
<defs>
<clipPath id="clip0_1002_1274">
<rect width="18" height="24" fill="white" transform="translate(20 18)"/>
</clipPath>
</defs>
</svg>
