<svg width="60" height="60" viewBox="0 0 60 60" fill="none" xmlns="http://www.w3.org/2000/svg">
<circle cx="30" cy="30" r="30" fill="#005E9B"/>
<g clip-path="url(#clip0_1002_1272)">
<path d="M20 30.0003C20 29.1353 20.11 28.2973 20.316 27.4963C20.8685 27.5253 21.4182 27.4011 21.9044 27.1372C22.3907 26.8733 22.7945 26.4801 23.0712 26.001C23.3479 25.522 23.4868 24.9758 23.4725 24.4227C23.4581 23.8697 23.2912 23.3314 22.99 22.8673C24.1989 21.6779 25.6908 20.8158 27.325 20.3623C27.576 20.8558 27.9586 21.2702 28.4306 21.5596C28.9025 21.8491 29.4454 22.0023 29.999 22.0023C30.5526 22.0023 31.0955 21.8491 31.5674 21.5596C32.0394 21.2702 32.422 20.8558 32.673 20.3623C34.3072 20.8158 35.7991 21.6779 37.008 22.8673C36.7065 23.3315 36.5393 23.87 36.5248 24.4233C36.5104 24.9766 36.6493 25.5231 36.9262 26.0023C37.2031 26.4816 37.6071 26.8749 38.0937 27.1387C38.5802 27.4026 39.1303 27.5267 39.683 27.4973C39.889 28.2973 39.999 29.1353 39.999 30.0003C39.999 30.8653 39.889 31.7033 39.683 32.5043C39.1305 32.4751 38.5806 32.5992 38.0942 32.863C37.6078 33.1268 37.2039 33.52 36.927 33.9991C36.6502 34.4782 36.5112 35.0245 36.5255 35.5776C36.5398 36.1308 36.7068 36.6692 37.008 37.1333C35.7991 38.3227 34.3072 39.1848 32.673 39.6383C32.422 39.1448 32.0394 38.7304 31.5674 38.441C31.0955 38.1516 30.5526 37.9984 29.999 37.9984C29.4454 37.9984 28.9025 38.1516 28.4306 38.441C27.9586 38.7304 27.576 39.1448 27.325 39.6383C25.6908 39.1848 24.1989 38.3227 22.99 37.1333C23.2915 36.6692 23.4587 36.1306 23.4732 35.5773C23.4876 35.024 23.3487 34.4775 23.0718 33.9983C22.7949 33.519 22.3909 33.1257 21.9043 32.8619C21.4178 32.598 20.8677 32.4739 20.315 32.5033C20.11 31.7043 20 30.8663 20 30.0003ZM24.804 33.0003C25.434 34.0913 25.614 35.3463 25.368 36.5243C25.776 36.8143 26.21 37.0653 26.665 37.2743C27.5817 36.4531 28.7693 35.9995 30 36.0003C31.26 36.0003 32.438 36.4713 33.335 37.2743C33.79 37.0653 34.224 36.8143 34.632 36.5243C34.3794 35.3203 34.5803 34.0654 35.196 33.0003C35.8106 31.9347 36.797 31.1335 37.966 30.7503C38.0122 30.2514 38.0122 29.7492 37.966 29.2503C36.7966 28.8674 35.8099 28.0661 35.195 27.0003C34.5793 25.9352 34.3784 24.6803 34.631 23.4763C34.2231 23.1862 33.7889 22.9351 33.334 22.7263C32.4176 23.5472 31.2303 24.0009 30 24.0003C28.7693 24.0012 27.5817 23.5475 26.665 22.7263C26.2101 22.9351 25.7759 23.1862 25.368 23.4763C25.6206 24.6803 25.4197 25.9352 24.804 27.0003C24.1894 28.0659 23.203 28.8672 22.034 29.2503C21.9878 29.7492 21.9878 30.2514 22.034 30.7503C23.2034 31.1332 24.1891 31.9345 24.804 33.0003ZM30 33.0003C29.2044 33.0003 28.4413 32.6842 27.8787 32.1216C27.3161 31.559 27 30.796 27 30.0003C27 29.2047 27.3161 28.4416 27.8787 27.879C28.4413 27.3164 29.2044 27.0003 30 27.0003C30.7956 27.0003 31.5587 27.3164 32.1213 27.879C32.6839 28.4416 33 29.2047 33 30.0003C33 30.796 32.6839 31.559 32.1213 32.1216C31.5587 32.6842 30.7956 33.0003 30 33.0003ZM30 31.0003C30.2652 31.0003 30.5196 30.8949 30.7071 30.7074C30.8946 30.5199 31 30.2655 31 30.0003C31 29.7351 30.8946 29.4807 30.7071 29.2932C30.5196 29.1057 30.2652 29.0003 30 29.0003C29.7348 29.0003 29.4804 29.1057 29.2929 29.2932C29.1054 29.4807 29 29.7351 29 30.0003C29 30.2655 29.1054 30.5199 29.2929 30.7074C29.4804 30.8949 29.7348 31.0003 30 31.0003Z" fill="white"/>
</g>
<defs>
<clipPath id="clip0_1002_1272">
<rect width="24" height="24" fill="white" transform="translate(18 18)"/>
</clipPath>
</defs>
</svg>
