<svg width="61" height="61" viewBox="0 0 61 61" fill="none" xmlns="http://www.w3.org/2000/svg">
<circle cx="30.7935" cy="30.03" r="30" fill="#005E9B"/>
<g clip-path="url(#clip0_1002_1271)">
<g clip-path="url(#clip1_1002_1271)">
<path d="M38.9605 24.03H36.4205C36.2555 22.653 35.592 21.384 34.5553 20.4628C33.5185 19.5416 32.1803 19.0319 30.7935 19.03C29.4066 19.0319 28.0684 19.5416 27.0317 20.4628C25.9949 21.384 25.3314 22.653 25.1665 24.03H22.6265C22.4055 24.03 22.1937 24.1178 22.0374 24.274C21.8812 24.4302 21.7935 24.6421 21.7935 24.863V39.53C21.7935 39.99 22.1665 40.363 22.6265 40.363H38.9605C39.4205 40.363 39.7935 39.99 39.7935 39.53V24.863C39.7935 24.6421 39.7057 24.4302 39.5495 24.274C39.3933 24.1178 39.1814 24.03 38.9605 24.03ZM30.7935 20.697C31.7384 20.6982 32.6524 21.0334 33.3741 21.6433C34.0958 22.2532 34.5787 23.0986 34.7375 24.03H26.8495C27.0082 23.0986 27.4911 22.2532 28.2128 21.6433C28.9345 21.0334 29.8486 20.6982 30.7935 20.697ZM38.1265 38.697H23.4605V25.697H25.1265V28.197C25.1265 28.4181 25.2143 28.6301 25.3706 28.7864C25.5269 28.9427 25.7389 29.0305 25.96 29.0305C26.181 29.0305 26.393 28.9427 26.5493 28.7864C26.7056 28.6301 26.7935 28.4181 26.7935 28.197V25.697H34.7935V28.197C34.7935 28.4181 34.8813 28.6301 35.0376 28.7864C35.1939 28.9427 35.4059 29.0305 35.627 29.0305C35.848 29.0305 36.06 28.9427 36.2163 28.7864C36.3726 28.6301 36.4605 28.4181 36.4605 28.197V25.697H38.1265V38.697Z" fill="white" stroke="white" stroke-width="0.5"/>
</g>
</g>
<defs>
<clipPath id="clip0_1002_1271">
<rect width="24" height="24" fill="white" transform="translate(18.7935 18.03)"/>
</clipPath>
<clipPath id="clip1_1002_1271">
<rect width="20" height="23" fill="white" transform="translate(20.7935 18.03)"/>
</clipPath>
</defs>
</svg>
