<svg width="64" height="64" viewBox="0 0 64 64" fill="none" xmlns="http://www.w3.org/2000/svg">
<path d="M19.5064 55.372C19.5089 56.4892 19.1798 57.5821 18.5609 58.5123C17.942 59.4424 17.061 60.1681 16.0295 60.5973C14.998 61.0266 13.8623 61.1402 12.7663 60.9237C11.6702 60.7073 10.6629 60.1706 9.87205 59.3814C9.08116 58.5923 8.54214 57.5862 8.32327 56.4906C8.10439 55.395 8.21551 54.2591 8.6425 53.2267C9.06948 52.1942 9.79316 51.3116 10.7219 50.6906C11.6507 50.0696 12.7429 49.7383 13.8601 49.7383C15.3555 49.7383 16.7897 50.3314 17.8483 51.3876C18.9068 52.4438 19.5031 53.8767 19.5064 55.372Z" stroke="#0E5696" stroke-width="1.5" stroke-miterlimit="10"/>
<path d="M38.9952 61.0181C42.1066 61.0181 44.629 58.4958 44.629 55.3844C44.629 52.2729 42.1066 49.7505 38.9952 49.7505C35.8837 49.7505 33.3613 52.2729 33.3613 55.3844C33.3613 58.4958 35.8837 61.0181 38.9952 61.0181Z" stroke="#0E5696" stroke-width="1.5" stroke-miterlimit="10"/>
<path d="M48.8201 25.4741C48.8201 29.85 47.5225 34.1275 45.0914 37.7659C42.6603 41.4044 39.2049 44.2402 35.1621 45.9148C31.1193 47.5894 26.6707 48.0275 22.3789 47.1738C18.0871 46.3201 14.1448 44.2129 11.0506 41.1186C7.95633 38.0244 5.84914 34.0821 4.99544 29.7903C4.14175 25.4985 4.5799 21.05 6.25449 17.0072C7.92907 12.9644 10.7649 9.50897 14.4033 7.07786C18.0417 4.64674 22.3193 3.34912 26.6952 3.34912V25.4741" stroke="#0E5696" stroke-width="1.5" stroke-miterlimit="10"/>
<path d="M34.4424 30.9964L50.8091 14.6421H59.9998" stroke="#0E5696" stroke-width="1.5" stroke-miterlimit="10"/>
</svg>
