<svg width="64" height="64" viewBox="0 0 64 64" fill="none" xmlns="http://www.w3.org/2000/svg">
<path d="M43.8695 31.1023C43.8695 34.5707 38.5926 37.3702 32.077 37.3702C25.5614 37.3702 20.2598 34.5707 20.2598 31.1023C20.2598 27.6339 25.5366 24.8096 32.077 24.8096C38.6174 24.8096 43.8695 27.6339 43.8695 31.1023Z" stroke="#0E5696" stroke-width="1.5" stroke-miterlimit="10"/>
<path d="M7.12988 30.4829V48.6176" stroke="#0E5696" stroke-width="1.5" stroke-miterlimit="10"/>
<path d="M57 30.4829V48.6176" stroke="#0E5696" stroke-width="1.5" stroke-miterlimit="10"/>
<path d="M20.8545 43.1421V61.2768" stroke="#0E5696" stroke-width="1.5" stroke-miterlimit="10"/>
<path d="M41.7147 61.2518V43.3153C38.5502 44.0144 35.3183 44.3634 32.0775 44.3559C18.3031 44.3559 7.12988 38.4102 7.12988 31.1018C7.12988 23.7934 18.3031 17.8477 32.0775 17.8477C45.8519 17.8477 57.0003 23.7686 57.0003 31.1018" stroke="#0E5696" stroke-width="1.5" stroke-miterlimit="10"/>
<path d="M31.1113 2.46289V12.5956" stroke="#0E5696" stroke-width="1.5" stroke-miterlimit="10"/>
<path d="M14.6615 15.4695L7.84863 8.43359" stroke="#0E5696" stroke-width="1.5" stroke-miterlimit="10"/>
<path d="M47.7852 15.4695L54.5981 8.43359" stroke="#0E5696" stroke-width="1.5" stroke-miterlimit="10"/>
</svg>
