<svg width="64" height="64" viewBox="0 0 64 64" fill="none" xmlns="http://www.w3.org/2000/svg">
<path d="M49.6181 47.7525C47.2972 47.7558 45.0274 47.0706 43.096 45.7835C41.1646 44.4964 39.6583 42.6653 38.7679 40.522C37.8774 38.3786 37.6427 36.0193 38.0935 33.7425C38.5443 31.4657 39.6604 29.3738 41.3004 27.7315C42.9404 26.0891 45.0307 24.9702 47.3068 24.5162C49.583 24.0622 51.9426 24.2936 54.0873 25.181C56.2319 26.0685 58.0651 27.5721 59.3549 29.5017C60.6447 31.4313 61.3331 33.7001 61.3331 36.021" stroke="#0E5696" stroke-width="1.5" stroke-miterlimit="10"/>
<path d="M15.5285 24.3062C17.8502 24.3029 20.1206 24.9886 22.0523 26.2764C23.9841 27.5642 25.4903 29.3962 26.3803 31.5405C27.2703 33.6848 27.504 36.0451 27.0518 38.3223C26.5997 40.5995 25.4821 42.6914 23.8404 44.333C22.1987 45.9747 20.1068 47.0924 17.8296 47.5445C15.5524 47.9967 13.1922 47.7629 11.0479 46.8729C8.90357 45.9829 7.07156 44.4767 5.78374 42.545C4.49592 40.6132 3.81023 38.3428 3.81349 36.0211" stroke="#0E5696" stroke-width="1.5" stroke-miterlimit="10"/>
<path d="M42.3746 20.0488H25.8747L15.8262 35.3774H32.3262L42.3746 20.0488Z" stroke="#0E5696" stroke-width="1.5" stroke-miterlimit="10"/>
<path d="M25.8744 20.0491L24.1914 15.5776H30.6099" stroke="#0E5696" stroke-width="1.5" stroke-miterlimit="10"/>
<path d="M49.0734 35.4766L41.0049 15.5776H47.4234" stroke="#0E5696" stroke-width="1.5" stroke-miterlimit="10"/>
</svg>
