<svg width="64" height="64" viewBox="0 0 64 64" fill="none" xmlns="http://www.w3.org/2000/svg">
<path d="M14.1051 47.4847C16.3059 47.4878 18.4582 46.8378 20.2894 45.617C22.1206 44.3962 23.5484 42.6596 24.392 40.6269C25.2356 38.5942 25.4572 36.3569 25.0286 34.1982C24.6 32.0396 23.5405 30.0567 21.9843 28.5005C20.4281 26.9443 18.4452 25.8847 16.2865 25.4561C14.1278 25.0275 11.8905 25.249 9.8578 26.0927C7.82511 26.9363 6.08842 28.3642 4.86765 30.1954C3.64687 32.0266 2.99692 34.1788 3.00001 36.3796" stroke="#0E5696" stroke-width="1.5" stroke-miterlimit="10"/>
<path d="M46.404 25.2578C44.2039 25.2547 42.0522 25.9043 40.2214 27.1244C38.3905 28.3444 36.9627 30.0803 36.1186 32.112C35.2745 34.1438 35.052 36.3803 35.4794 38.5386C35.9067 40.6968 36.9646 42.6797 38.5193 44.2365C40.0739 45.7933 42.0554 46.8542 44.213 47.2845C46.3707 47.7149 48.6075 47.4955 50.6405 46.6543C52.6735 45.813 54.4112 44.3877 55.6338 42.5586C56.8565 40.7295 57.5091 38.5787 57.5091 36.3786" stroke="#0E5696" stroke-width="1.5" stroke-miterlimit="10"/>
<path d="M20.9561 21.2388H36.6127L46.1381 35.7693H30.4814L20.9561 21.2388Z" stroke="#0E5696" stroke-width="1.5" stroke-miterlimit="10"/>
<path d="M36.612 21.2387L38.2074 17H32.123" stroke="#0E5696" stroke-width="1.5" stroke-miterlimit="10"/>
<path d="M14.6211 35.8631L22.2696 17H16.1852" stroke="#0E5696" stroke-width="1.5" stroke-miterlimit="10"/>
<path d="M61.2941 47.4996H3V18.376L22.4262 47.4996" stroke="#0E5696" stroke-width="1.5" stroke-miterlimit="10"/>
</svg>
