<svg width="64" height="64" viewBox="0 0 64 64" fill="none" xmlns="http://www.w3.org/2000/svg">
<path d="M58.7739 23.6291H5.22612C2.85762 23.6291 0.9375 25.5493 0.9375 27.9178V42.1191H63.0625V27.9178C63.0625 25.5493 61.1424 23.6291 58.7739 23.6291Z" stroke="#005E9B" stroke-width="1.5" stroke-miterlimit="10" stroke-linecap="round" stroke-linejoin="round"/>
<path d="M49.5081 54.814H5.22612C2.85762 54.814 0.9375 52.8938 0.9375 50.5253V42.1192H63.0625V50.5253C63.0625 52.8938 61.1424 54.814 58.7739 54.814H53.9002M6.71175 48.4666H21.4295M53.9002 48.4666H57.8973M29.0149 27.4533H48.5033M16.1057 27.4533H24.6367M49.9406 23.6292H14.6683L16.8776 29.5068C17.0732 30.027 17.4227 30.4752 17.8796 30.7915C18.3364 31.1078 18.8789 31.2773 19.4346 31.2773H45.1744C45.7301 31.2773 46.2726 31.1078 46.7294 30.7915C47.1863 30.4752 47.5358 30.027 47.7314 29.5068L49.9406 23.6292Z" stroke="#005E9B" stroke-width="1.5" stroke-miterlimit="10" stroke-linecap="round" stroke-linejoin="round"/>
<path d="M55.8989 33.3433C57.0026 33.3433 57.8974 34.2381 57.8974 35.3418C57.8974 36.4456 57.0026 37.3403 55.8989 37.3403C54.7952 37.3403 53.9004 36.4456 53.9004 35.3418C53.9004 34.2381 54.7952 33.3433 55.8989 33.3433Z" stroke="#005E9B" stroke-width="1.5" stroke-miterlimit="10" stroke-linecap="round" stroke-linejoin="round"/>
<path d="M26.79 19.1313V9.18597M32.0648 19.1313V9.18597M21.8057 19.1313V17.0837C21.8057 14.2356 20.8517 11.4645 19.0869 9.18597M37.2105 19.1313V9.18597M42.1949 19.1313V17.0837C42.1949 14.2356 43.1489 11.4645 44.9137 9.18597" stroke="#005E9B" stroke-width="1.5" stroke-miterlimit="10" stroke-linecap="round" stroke-linejoin="round"/>
</svg>
