<svg width="64" height="64" viewBox="0 0 64 64" fill="none" xmlns="http://www.w3.org/2000/svg">
<g clip-path="url(#clip0_469_2004)">
<path d="M8.8335 9.43875V21.5012C8.8335 22.6975 9.8035 23.6663 10.9985 23.6663H29.3985C30.5935 23.6663 31.5622 22.6975 31.5622 21.5012V3.1025C31.5622 1.90625 30.5935 0.9375 29.3985 0.9375H10.9985C9.8035 0.9375 8.8335 1.90625 8.8335 3.1025V5.06375M6.11475 50.7875V47.1188M6.11475 60.0312V55.1625M9.39737 58.9095V45.9971M18.7414 55.7174V42.805M22.0244 54.5961V41.6824M31.3684 51.404V38.4902M34.6514 50.2826V37.369M58.5397 47.91H61.2947C62.271 47.91 63.0622 48.7013 63.0622 49.6775V61.295C63.0622 62.2712 62.271 63.0625 61.2947 63.0625H1.6735C1.53819 63.0624 1.40554 63.025 1.29008 62.9544C1.17462 62.8839 1.08083 62.7829 1.01898 62.6625C0.957127 62.5422 0.929612 62.4071 0.93945 62.2722C0.949288 62.1372 0.996099 62.0076 1.07475 61.8975C1.16225 61.7762 1.28725 61.68 1.436 61.63L40.6435 48.235C41.2747 48.02 41.936 47.91 42.6035 47.91H54.1647M2.4965 46.6199C2.20337 45.762 2.66125 44.8289 3.51925 44.5359L35.8161 33.5028C36.674 33.2096 37.607 33.6675 37.9001 34.5254C38.1932 35.3833 37.7354 36.3164 36.8774 36.6094L4.5805 47.6425C3.72262 47.9356 2.7895 47.4778 2.4965 46.6199Z" stroke="#0E5696" stroke-width="1.5" stroke-miterlimit="10" stroke-linecap="round" stroke-linejoin="round"/>
<path d="M17.3884 7.82424C18.4184 7.82424 19.2534 6.98925 19.2534 5.95924C19.2534 4.92923 18.4184 4.09424 17.3884 4.09424C16.3584 4.09424 15.5234 4.92923 15.5234 5.95924C15.5234 6.98925 16.3584 7.82424 17.3884 7.82424Z" stroke="#0E5696" stroke-width="1.5" stroke-miterlimit="10" stroke-linecap="round" stroke-linejoin="round"/>
<path d="M22.3259 15.5726C22.3259 18.2992 20.1155 20.5095 17.389 20.5095C14.6625 20.5095 12.4521 18.2991 12.4521 15.5726C12.4521 12.8461 14.6625 10.6357 17.389 10.6357" stroke="#0E5696" stroke-width="1.5" stroke-miterlimit="10" stroke-linecap="round" stroke-linejoin="round"/>
<path d="M17.3887 7.82422V15.5723H23.2184L26.4304 18.7843L27.944 17.2707M17.3887 11.6802H22.3257M45.1873 31.9998H59.0514M55.1684 36.0091L59.1778 31.9998L55.1684 27.9906" stroke="#0E5696" stroke-width="1.5" stroke-miterlimit="10" stroke-linecap="round" stroke-linejoin="round"/>
</g>
<defs>
<clipPath id="clip0_469_2004">
<rect width="64" height="64" fill="white"/>
</clipPath>
</defs>
</svg>
