<svg width="64" height="64" viewBox="0 0 64 64" fill="none" xmlns="http://www.w3.org/2000/svg">
<path d="M25.2358 26.802C29.1258 25.7003 31.0146 20.3264 29.4406 14.8624C27.8666 9.39844 23.4145 5.86818 19.547 6.94748C15.6795 8.02678 13.7682 13.4459 15.3422 18.9099" stroke="#0E5696" stroke-width="1.5" stroke-miterlimit="10"/>
<path d="M33.6455 14.8631C35.2195 9.35414 39.6267 5.86881 43.4941 6.90314" stroke="#0E5696" stroke-width="1.2" stroke-miterlimit="10"/>
<path d="M43.4936 6.90283C47.3611 8.00462 49.2049 13.3563 47.6309 18.8653C46.0569 24.3742 41.6497 27.8592 37.7822 26.8249" stroke="#0E5696" stroke-width="1.5" stroke-miterlimit="10"/>
<path d="M6.21357 33.5704C3.96502 28.7586 4.97689 23.6094 8.34971 22.0579C11.7225 20.5064 16.2421 23.1597 18.4457 27.9716" stroke="#0E5696" stroke-width="1.5" stroke-miterlimit="10"/>
<path d="M18.4456 27.9717C20.6942 32.7836 19.6824 37.9327 16.3096 39.4842" stroke="#0E5696" stroke-width="1.2" stroke-miterlimit="10"/>
<path d="M45.5859 27.0043C47.8345 22.1924 52.3316 19.5391 55.6819 21.0906" stroke="#0E5696" stroke-width="1.2" stroke-miterlimit="10"/>
<path d="M55.6805 21.0913C59.0533 22.6428 60.0202 27.8369 57.8167 32.5813C55.6131 37.3258 51.071 40.0465 47.7207 38.495" stroke="#0E5696" stroke-width="1.5" stroke-miterlimit="10"/>
<path d="M20.0192 40.4283C20.0192 40.4283 11.3847 55.7635 19.0748 57.6748C26.7648 59.5861 27.6868 54.8191 33.4655 54.8191C39.2443 54.8191 40.2111 59.6535 45.9674 57.6748C51.7237 55.6961 52.713 51.8959 45.023 40.4283C37.333 28.9608 25.7979 31.7939 20.0192 40.4283Z" stroke="#0E5696" stroke-width="1.5" stroke-miterlimit="10"/>
</svg>
