<svg width="64" height="64" viewBox="0 0 64 64" fill="none" xmlns="http://www.w3.org/2000/svg">
<path d="M56.0003 51.8587C50.8067 56.7908 41.9515 60.0228 31.9005 60.0228C21.8496 60.0228 12.9944 56.7908 7.80078 51.8587C10.8833 43.0782 20.5045 36.689 31.9005 36.689V37.6044C31.9005 38.2237 32.1466 38.8177 32.5845 39.2557C33.0225 39.6936 33.6164 39.9396 34.2358 39.9396H40.1393C40.5856 39.9419 41.0229 39.8142 41.3978 39.572C41.7727 39.3298 42.0689 38.9836 42.2504 38.5759C45.368 39.661 48.2125 41.411 50.5867 43.7045C52.9609 45.9981 54.8081 48.7804 56.0003 51.8587Z" stroke="#0E5696" stroke-width="1.06487" stroke-miterlimit="10"/>
<path d="M56.0003 51.8587C50.8067 56.7908 41.9515 60.0228 31.9005 60.0228C21.8496 60.0228 12.9944 56.7908 7.80078 51.8587C10.8833 43.0782 20.5045 36.689 31.9005 36.689V37.6044C31.9005 38.2237 32.1466 38.8177 32.5845 39.2557C33.0225 39.6936 33.6164 39.9396 34.2358 39.9396H40.1393C40.5856 39.9419 41.0229 39.8142 41.3978 39.572C41.7727 39.3298 42.0689 38.9836 42.2504 38.5759C45.368 39.661 48.2125 41.411 50.5867 43.7045C52.9609 45.9981 54.8081 48.7804 56.0003 51.8587Z" stroke="#0E5696" stroke-width="1.5" stroke-miterlimit="10"/>
<path d="M15.0127 23.5186C15.0127 12.7391 22.8778 3.97705 32.5551 3.97705C42.2324 3.97705 50.0975 12.7391 50.0975 23.5186" stroke="#0E5696" stroke-width="1.5" stroke-miterlimit="10"/>
<path d="M43.745 23.4999C43.7975 27.1862 42.4179 30.749 39.8965 33.4386H34.2919C33.6726 33.4386 33.0786 33.6846 32.6407 34.1225C32.2027 34.5605 31.9567 35.1545 31.9567 35.7739V36.6519C26.0719 36.2595 21.4014 30.5242 21.4014 23.5745C21.4014 16.6248 26.4268 10.4971 32.6106 10.4971C38.7943 10.4971 43.745 16.2326 43.745 23.4999Z" stroke="#0E5696" stroke-width="1.5" stroke-miterlimit="10"/>
<path d="M15.6283 18.3057H13.0689C12.719 18.3057 12.3725 18.3748 12.0494 18.5093C11.7263 18.6438 11.433 18.8409 11.1864 19.0892C10.9399 19.3376 10.7448 19.6323 10.6126 19.9563C10.4804 20.2803 10.4136 20.6271 10.4161 20.9771V25.3301C10.4136 25.6801 10.4804 26.0271 10.6126 26.3511C10.7448 26.6751 10.9399 26.9696 11.1864 27.2179C11.433 27.4662 11.7263 27.6634 12.0494 27.7979C12.3725 27.9323 12.719 28.0015 13.0689 28.0015H15.6283" stroke="#0E5696" stroke-width="1.5" stroke-miterlimit="10"/>
<path d="M49.4794 18.3057H52.0388C52.7473 18.3057 53.4269 18.5871 53.9279 19.0881C54.4289 19.5891 54.7103 20.2685 54.7103 20.9771V25.3301C54.7103 26.0386 54.4289 26.7181 53.9279 27.2191C53.4269 27.7201 52.7473 28.0015 52.0388 28.0015H49.4794V32.1304C49.4794 33.3393 48.9991 34.4988 48.1443 35.3537C47.2894 36.2085 46.1299 36.6887 44.921 36.6887H42.4736" stroke="#0E5696" stroke-width="1.5" stroke-miterlimit="10"/>
<path d="M42.4754 35.7737V37.6419C42.4765 37.9787 42.3997 38.3112 42.2512 38.6134C42.0698 39.0212 41.7735 39.3674 41.3986 39.6096C41.0237 39.8517 40.5864 39.9794 40.1401 39.9772H34.2366C33.6173 39.9772 33.0233 39.7312 32.5854 39.2932C32.1474 38.8553 31.9014 38.2613 31.9014 37.6419V35.7737C31.9014 35.1544 32.1474 34.5603 32.5854 34.1224C33.0233 33.6845 33.6173 33.4385 34.2366 33.4385H40.1401C40.7595 33.4385 41.3535 33.6845 41.7914 34.1224C42.2293 34.5603 42.4754 35.1544 42.4754 35.7737Z" stroke="#0E5696" stroke-width="1.2" stroke-miterlimit="10"/>
</svg>
