<svg width="64" height="64" viewBox="0 0 64 64" fill="none" xmlns="http://www.w3.org/2000/svg">
<g clip-path="url(#clip0_469_1957)">
<mask id="mask0_469_1957" style="mask-type:luminance" maskUnits="userSpaceOnUse" x="0" y="0" width="64" height="64">
<path d="M0 0.00018692H63.9998V64H0V0.00018692Z" fill="white"/>
</mask>
<g mask="url(#mask0_469_1957)">
<path d="M48.5605 39.3987L62.7498 46.7818L31.9999 62.7817L1.25 46.7818L15.4391 39.3988" stroke="#005E9B" stroke-width="1.5" stroke-miterlimit="10" stroke-linecap="round" stroke-linejoin="round"/>
</g>
<path d="M8.9375 36L22.981 28.6928" stroke="#005E9B" stroke-width="1.5" stroke-miterlimit="10" stroke-linecap="round" stroke-linejoin="round"/>
<path d="M16.625 39.9839L30.6311 32.6962" stroke="#005E9B" stroke-width="1.5" stroke-miterlimit="10" stroke-linecap="round" stroke-linejoin="round"/>
<path d="M24.5 43.896L54.8749 28.0409" stroke="#005E9B" stroke-width="1.5" stroke-miterlimit="10" stroke-linecap="round" stroke-linejoin="round"/>
<mask id="mask1_469_1957" style="mask-type:luminance" maskUnits="userSpaceOnUse" x="0" y="0" width="64" height="64">
<path d="M0 0.00018692H63.9998V64H0V0.00018692Z" fill="white"/>
</mask>
<g mask="url(#mask1_469_1957)">
<path d="M48.6419 24.6749L62.7498 32.0157L31.9999 48.0156L1.25 32.0157L15.4391 24.6328" stroke="#005E9B" stroke-width="1.5" stroke-miterlimit="10" stroke-linecap="round" stroke-linejoin="round"/>
<path d="M52.3641 11.8461L62.7498 17.25L31.9999 33.25L1.25 17.25L31.9999 1.25009L42.3853 6.65383" stroke="#005E9B" stroke-width="1.5" stroke-miterlimit="10" stroke-linecap="round" stroke-linejoin="round"/>
</g>
</g>
<defs>
<clipPath id="clip0_469_1957">
<rect width="64" height="64" fill="white"/>
</clipPath>
</defs>
</svg>
